<svg width="115" height="63" viewBox="0 0 115 63" fill="none" xmlns="http://www.w3.org/2000/svg">
<path fill-rule="evenodd" clip-rule="evenodd" d="M56.8991 9.60736C30.3871 9.71533 8.92845 31.2407 8.92845 57.778C8.92845 60.1772 6.98353 62.1221 4.58434 62.1221C2.18516 62.1221 0.240234 60.1772 0.240234 57.778C0.240234 26.3755 25.697 0.918732 57.0995 0.918732H57.3011L57.5018 0.937406C89.3789 3.90272 115.45 29.5365 113.959 57.778C113.959 60.1772 112.014 62.1221 109.615 62.1221C107.215 62.1221 105.271 60.1772 105.271 57.778C105.647 31.4037 85.1334 12.3161 56.8991 9.60736Z" fill="#E6EDF5"/>
<path fill-rule="evenodd" clip-rule="evenodd" d="M56.8763 9.46471C29.9156 9.58308 8.78548 31.1473 8.78548 57.7781C8.78548 60.0984 6.90453 61.9793 4.58427 61.9793C2.264 61.9793 0.383057 60.0984 0.383057 57.7781C0.383057 26.4758 25.3495 1.0618 57.0994 1.0618H57.3246L57.5485 1.08588C68.8413 2.30016 78.7758 5.18424 87.3924 10.5696C96.0328 15.9698 103.093 23.7258 108.866 34.2905C109.979 36.3266 109.231 38.8791 107.195 39.9919C105.159 41.1046 102.606 40.3561 101.493 38.32C96.2973 28.8124 90.1701 22.2142 82.9392 17.6948C75.7371 13.1935 67.1885 10.5976 56.8763 9.46471Z" fill="#FF9737"/>
<path fill-rule="evenodd" clip-rule="evenodd" d="M30.8262 16.8289C16.9846 26.1552 8.78548 42.9244 8.78548 57.5449C8.78548 59.8651 6.90453 61.7461 4.58427 61.7461C2.264 61.7461 0.383057 59.8651 0.383057 57.5449C0.383057 40.1897 9.92238 20.7819 26.1311 9.86062C43.3288 -1.97244 68.7694 -2.90605 91.5847 13.4019C93.535 14.6589 94.097 17.259 92.8399 19.2092C91.5829 21.1595 88.9829 21.7214 87.0326 20.4644C63.6619 5.40078 44.3078 7.74512 30.8262 16.8289Z" fill="#F45552"/>
<path fill-rule="evenodd" clip-rule="evenodd" d="M56.9604 9.6042C29.7915 9.2301 9.36009 31.2599 8.92777 57.8481C8.88876 60.2469 6.91247 62.16 4.51361 62.121C2.11474 62.082 0.201692 60.1057 0.240698 57.7068C0.741973 26.8784 25.3569 -0.339321 57.3328 1.06099C59.7307 1.13773 61.518 3.0033 61.4412 5.40126C61.3645 7.79922 59.3584 9.68094 56.9604 9.6042Z" fill="#4182FA"/>
</svg>
