<svg width="92" height="69" viewBox="0 0 92 69" fill="none" xmlns="http://www.w3.org/2000/svg">
<g clip-path="url(#clip0)">
<path opacity="0.1" d="M39.3258 5.25219C36.3365 4.03849 33.1775 3.02238 29.9526 3.15171C25.2076 3.33806 20.663 6.18636 18.4304 10.3689C16.5389 13.912 16.3057 18.0655 15.491 21.9974C14.4873 26.8426 12.5652 31.4468 10.5112 35.9498C9.40782 38.3651 8.24411 40.8391 8.06316 43.4906C7.81144 47.1711 9.5735 50.8395 12.336 53.2902C15.0985 55.7409 18.7698 57.0301 22.4508 57.312C24.4107 57.4623 26.4582 57.3233 28.1994 56.4124C30.041 55.4485 31.3833 53.7063 33.2322 52.7568C34.946 51.8733 36.9502 51.7528 38.8739 51.8677C41.3936 52.0182 43.8764 52.5451 46.2398 53.4308C48.9283 54.4396 51.4286 55.8999 54.1115 56.9225C56.7944 57.945 59.7918 58.5161 62.5342 57.6623C65.1077 56.859 67.1456 54.9152 68.9817 52.9432C71.9953 49.7065 74.7438 46.2333 77.2009 42.5573C78.8568 40.0801 80.3977 37.4663 81.1303 34.5786C82.5297 29.0587 80.6035 22.8304 76.3299 19.06C72.7913 15.9369 68.0391 14.5811 63.3883 13.7585C59.1476 13.0083 54.2442 12.9617 50.3405 11.0066C46.617 9.13909 43.2295 6.83779 39.3258 5.25219Z" fill="#2670FA"/>
<path d="M70.6787 10.388C69.5302 10.4338 69.4723 13.3953 69.5439 13.5247C69.6155 13.654 69.2833 14.9906 69.2833 14.9906C69.2833 14.9906 68.7622 17.0172 68.8225 17.3939C68.8828 17.7706 68.5418 18.0172 68.5418 18.0172C68.032 18.218 67.3926 18.8654 67.2229 19.043L67.1803 19.0887C67.1803 19.0887 66.6865 19.41 66.5996 19.5369C66.5128 19.6639 66.2779 19.5627 66.2779 19.5627C66.2779 19.5627 65.6104 19.4984 65.5236 19.5241C65.4641 19.5418 65.3708 19.4325 65.3177 19.3634C65.2928 19.3305 65.2767 19.3056 65.2767 19.3056L65.2566 18.708C65.2314 18.6888 65.2045 18.6722 65.1761 18.6582C65.1898 18.5907 65.2067 18.5208 65.2276 18.4494C65.5277 18.3032 65.7809 18.0761 65.9587 17.7939C65.978 17.7634 65.9957 17.7321 66.0125 17.7007C66.057 17.7315 66.1105 17.7465 66.1645 17.7433C66.1883 17.744 66.2121 17.7418 66.2353 17.7369C66.3103 17.7167 66.3803 17.6814 66.4412 17.6333C66.6072 17.5214 66.7396 17.3664 66.824 17.1851C66.8388 17.1504 66.8509 17.1147 66.8602 17.0782C66.8481 17.0983 66.8353 17.1184 66.8224 17.1377C66.8539 17.0529 66.8664 16.9623 66.8591 16.8723C66.8517 16.7822 66.8246 16.6948 66.7798 16.6164C66.717 16.5151 66.6189 16.4332 66.5787 16.3208C66.5112 16.1272 66.639 15.9272 66.7178 15.7376C66.7941 15.5651 66.8189 15.3744 66.7894 15.1882C66.7737 15.0949 66.7392 15.0057 66.688 14.9261C66.6369 14.8465 66.5702 14.778 66.4919 14.7247C66.1758 14.5199 65.7471 14.6323 65.3812 14.5335C65.2505 14.4912 65.1229 14.4399 64.9992 14.3801C64.8113 14.2991 64.6153 14.2383 64.4145 14.1986C64.2159 14.1592 63.9754 14.1552 63.8516 14.3102C63.817 14.3595 63.7864 14.4113 63.7599 14.4653C63.72 14.5298 63.6677 14.5859 63.606 14.6301C63.5443 14.6744 63.4744 14.706 63.4004 14.7231C63.3275 14.7369 63.2535 14.7447 63.1793 14.7464C63.1859 14.7162 63.1859 14.685 63.1793 14.6548C63.086 14.3496 63.353 14.1231 63.7004 13.9865C64.0478 13.85 65.3692 12.8106 65.5228 12.564C65.6764 12.3174 66.7516 11.5439 66.7516 11.5439C66.7516 11.5439 68.3601 11.0892 68.8877 9.43294C69.4152 7.77665 66.364 10.5896 66.0568 10.6739C65.7496 10.7583 65.3096 11.0756 65.3096 11.0756L63.353 12.2057C62.98 12.416 62.6268 12.6595 62.2978 12.9335C61.8241 13.3423 61.5242 14.0371 61.5242 14.0371C61.5242 14.0371 61.3368 14.3424 61.0633 14.7842C60.9125 15.0359 60.709 15.2521 60.4666 15.4179L60.4754 15.4018C60.4537 15.4284 59.7806 16.2774 59.7211 16.6485C59.6616 17.0196 59.3873 18.5321 59.3873 18.5321C59.3873 18.5321 59.1461 19.7201 58.9804 19.9538C58.9804 19.9538 58.8461 20.6358 58.7665 20.7274C58.6868 20.8189 58.3644 21.7852 58.419 21.8832C58.419 21.8832 58.1118 22.5523 58.1657 22.8054L57.6116 24.1307C57.6116 24.1307 57.3108 24.7861 57.3309 25.1693C57.3406 25.3548 57.3486 25.5709 57.3542 25.7476C57.3542 25.7757 57.3542 25.8023 57.3542 25.828C57.3542 25.8561 57.3542 25.8834 57.3542 25.9083C57.3245 25.9581 57.2481 26.085 57.1685 26.2384C57.0543 26.4617 56.9328 26.7404 56.9401 26.9123C56.9529 27.2144 56.9537 27.9517 56.8146 28.2224L56.7736 28.2064C56.7248 28.2871 56.6972 28.3788 56.6932 28.473L56.7028 28.4779C56.7028 28.5012 56.6956 28.5253 56.6932 28.551C56.6594 28.8586 56.7085 29.2867 56.6312 29.3807C56.5243 29.5108 56.5774 32.3945 56.5774 32.3945C56.5774 32.3945 56.4036 34.1994 56.7511 35.3432L56.7245 36.2388C56.7245 36.2388 56.7109 37.083 56.7511 37.2027C56.7913 37.3224 56.805 38.177 56.805 38.177L57.0052 39.606C57.0052 39.606 56.7374 41.8141 56.965 42.3595C57.0969 42.6604 57.1784 42.9809 57.2063 43.3082C57.3221 43.3718 57.446 43.4196 57.5746 43.4503V43.5307L57.5223 44.8737V44.9476C57.5223 44.9476 57.5159 44.9829 57.5111 45.0416C57.5111 45.052 57.5111 45.0633 57.5111 45.0745C57.5107 45.0777 57.5107 45.0809 57.5111 45.0841C57.5111 45.093 57.5111 45.1026 57.5111 45.1122C57.5107 45.1195 57.5107 45.1267 57.5111 45.1339C57.5115 45.1404 57.5115 45.1468 57.5111 45.1532V45.1693C57.5111 45.2022 57.5111 45.2376 57.5111 45.2745C57.5111 45.289 57.5111 45.3042 57.5111 45.3195C57.5111 45.3347 57.5111 45.3283 57.5111 45.3323V45.3524C57.5111 45.3613 57.5111 45.3701 57.5111 45.3789V45.3918C57.5111 45.4054 57.5151 45.4183 57.5175 45.4319C57.5171 45.4351 57.5171 45.4384 57.5175 45.4416C57.5175 45.4568 57.5231 45.4713 57.5264 45.4858C57.5264 45.5002 57.5328 45.5147 57.5368 45.5291C57.5372 45.5307 57.5372 45.5324 57.5368 45.534C57.5368 45.5412 57.5408 45.5492 57.5432 45.5564C57.5428 45.5599 57.5428 45.5634 57.5432 45.5669C57.5432 45.5757 57.5489 45.5846 57.5513 45.5942V45.6006C57.5593 45.6231 57.5674 45.6456 57.577 45.6681C57.5767 45.6705 57.5767 45.6729 57.577 45.6753C57.577 45.6834 57.5843 45.6922 57.5883 45.7002L57.5931 45.7115L57.6036 45.7332L57.61 45.7452L57.6212 45.7653L57.6285 45.7773C57.6285 45.7838 57.6357 45.7902 57.6397 45.7966C57.6438 45.803 57.6454 45.8046 57.6478 45.8095L57.6598 45.8279L57.6687 45.84L57.6816 45.8585L57.6912 45.8705L57.7057 45.8882L57.7153 45.8994L57.7322 45.9187L57.7411 45.9283L57.7684 45.9549C57.771 45.9579 57.7739 45.9606 57.7773 45.9629C57.7836 45.9695 57.7903 45.9756 57.7974 45.9814L57.8102 45.9918L57.8279 46.0063L57.8432 46.0175L57.8609 46.0304L57.8778 46.0416L57.8955 46.0528L57.914 46.0633L57.9325 46.0745L57.9518 46.0842L57.9719 46.0938L57.992 46.1035L58.0121 46.1123L58.0338 46.1211L58.0555 46.1292L58.078 46.1372L58.1022 46.1444L58.14 46.1557L58.1713 46.1637L58.1963 46.1685L58.222 46.1741H58.2493L58.2759 46.1782H58.304H58.3322H58.3611H58.3909H58.4206H58.5477H58.5847H58.6153L58.6587 46.1741H58.6852L58.7584 46.1661C58.7584 46.1661 59.6696 46.3019 59.6994 45.942C59.6994 45.9235 59.6994 45.9042 59.7034 45.8842V45.8384C59.703 45.8328 59.703 45.8271 59.7034 45.8215C59.7034 45.8038 59.7034 45.7846 59.7034 45.7653V45.7565C59.7034 45.7364 59.7034 45.7163 59.7034 45.6954V45.652C59.7034 45.6167 59.7034 45.5805 59.7034 45.5444C59.7034 45.5307 59.7034 45.5179 59.7034 45.5042C59.7034 45.4673 59.7034 45.4311 59.7034 45.395V45.3894C59.7034 45.3805 59.7034 45.3733 59.7034 45.3645C59.6978 45.1861 59.6889 45.0207 59.6833 44.9283C59.6833 44.8793 59.6785 44.848 59.6785 44.848C59.6785 44.848 59.368 44.3805 59.4187 44.2054C59.4694 44.0303 59.4581 43.4359 59.4581 43.4359C59.4581 43.4359 59.3375 43.1507 59.2562 42.8985C59.2498 42.8792 59.2442 42.86 59.2385 42.8415C59.3059 42.7645 59.3693 42.684 59.4283 42.6005C59.5437 41.9813 59.4645 41.3416 59.2016 40.7691C59.1864 40.7586 59.174 40.7445 59.1654 40.7282C59.1569 40.7118 59.1524 40.6936 59.1525 40.6751C59.1521 40.6719 59.1521 40.6687 59.1525 40.6655L59.3077 38.769L59.2136 37.6654C59.2136 37.6654 59.1469 36.9111 59.294 36.5866L59.5876 33.7295L60.0042 32.0676C60.0042 32.0676 60.1377 32.0025 60.2454 32.315C60.3532 32.6274 60.6186 34.0419 60.6186 34.0419L61.262 36.3802C61.262 36.3802 61.3689 37.2115 61.4622 37.3288C61.5555 37.4461 61.5563 37.965 61.5563 37.965C61.5563 37.965 61.7566 38.3811 61.73 38.5626C61.7035 38.7441 61.73 39.2381 61.796 39.4068C61.8619 39.5755 61.8901 40.7723 61.8901 40.7723C61.8132 41.1637 61.8223 41.5671 61.9166 41.9547C62.0775 42.5523 61.9834 43.3058 61.9834 43.3058C62.0003 43.3318 62.0186 43.357 62.0381 43.3813C62.0316 43.3989 62.0244 43.4166 62.018 43.4327C61.9761 43.5411 61.9432 43.6174 61.9432 43.6174C61.9432 43.6174 61.9335 44.2118 61.9834 44.3869C62.0332 44.562 61.7228 45.0295 61.7228 45.0295C61.7228 45.0295 61.7228 45.0584 61.718 45.1098C61.7123 45.2022 61.7035 45.3669 61.6979 45.546C61.6979 45.554 61.6979 45.5621 61.6979 45.5709V45.5773V45.685C61.6979 45.6986 61.6979 45.7123 61.6979 45.7259C61.6979 45.7621 61.6979 45.7982 61.6979 45.8336C61.6979 45.84 61.6979 45.8472 61.6979 45.8536C61.6979 45.8601 61.6979 45.8641 61.6979 45.8689V45.8761C61.6979 45.897 61.6979 45.9179 61.6979 45.938V45.9468C61.6979 45.9661 61.6979 45.9854 61.6979 46.0038C61.6975 46.0089 61.6975 46.014 61.6979 46.0191C61.6979 46.0344 61.6979 46.0504 61.6979 46.0657C61.6979 46.081 61.6979 46.1051 61.7019 46.1235C61.7325 46.4834 62.6436 46.3476 62.6436 46.3476L62.7168 46.3565H62.7426H62.7868H62.8165H62.8543H62.9798H63.0096H63.0393H63.0683H63.0964H63.1238L63.1511 46.3517L63.1776 46.3476L63.2034 46.342L63.2291 46.3372L63.2605 46.3292L63.2983 46.3179L63.3216 46.3107L63.3441 46.3027C63.3515 46.3005 63.3588 46.2978 63.3658 46.2946L63.3876 46.2858L63.4085 46.277L63.4286 46.2681L63.4487 46.2577L63.4672 46.248L63.4865 46.2376L63.5042 46.2263L63.5227 46.2151L63.5387 46.2039L63.5564 46.191C63.5619 46.1877 63.567 46.184 63.5717 46.1798C63.578 46.1757 63.5839 46.1711 63.5894 46.1661L63.6031 46.1549L63.6232 46.1372L63.632 46.1284L63.6594 46.1018L63.6674 46.0922L63.6851 46.0737L63.694 46.0617C63.6995 46.0562 63.7046 46.0503 63.7092 46.044L63.7181 46.032L63.7318 46.0135L63.7398 46.0014L63.7527 45.983C63.7551 45.9785 63.7577 45.9742 63.7607 45.9701C63.7607 45.9637 63.7679 45.9573 63.772 45.9508L63.7792 45.9388C63.7792 45.9316 63.7864 45.9251 63.7897 45.9187C63.7921 45.9149 63.7943 45.9108 63.7961 45.9067C63.7961 45.8994 63.8033 45.8922 63.8066 45.885L63.8122 45.8737C63.8122 45.8657 63.8194 45.8577 63.8234 45.8488V45.8416C63.8323 45.8191 63.8411 45.7966 63.8484 45.7741V45.7677C63.8484 45.7589 63.854 45.75 63.8572 45.7412C63.8569 45.7374 63.8569 45.7337 63.8572 45.7299C63.8572 45.7227 63.8572 45.7147 63.8637 45.7075V45.7034C63.864 45.7019 63.864 45.7002 63.8637 45.6986C63.8637 45.6842 63.8717 45.6697 63.8749 45.656C63.8749 45.6416 63.8813 45.6271 63.8838 45.6127V45.6022C63.8838 45.5886 63.8886 45.5757 63.8902 45.5629C63.8918 45.55 63.8902 45.554 63.8902 45.5492C63.8902 45.5444 63.8902 45.5315 63.8902 45.5227C63.8902 45.5139 63.8902 45.5091 63.8902 45.5026C63.8902 45.4962 63.8902 45.4946 63.8902 45.4898C63.8902 45.485 63.8902 45.4601 63.8902 45.4448C63.8902 45.4078 63.8902 45.3725 63.8902 45.3396V45.3042C63.8898 45.297 63.8898 45.2898 63.8902 45.2825C63.8902 45.2729 63.8902 45.2641 63.8902 45.2544C63.8898 45.2512 63.8898 45.248 63.8902 45.2448C63.8902 45.2335 63.8902 45.2223 63.8902 45.2127C63.8854 45.154 63.8797 45.1187 63.8797 45.1187V45.0456L63.8291 43.7459V43.6656C63.9039 43.6238 63.9803 43.5764 64.0599 43.521C64.0599 43.521 64.0462 42.7804 64.2601 42.4824C64.4741 42.1844 64.1532 41.4037 64.1532 41.4037L64.0197 38.6108L64.0728 37.3256C63.9668 37.1349 63.9114 36.9204 63.9119 36.7023C63.8908 36.4237 63.8182 36.1513 63.698 35.899C63.698 35.899 63.5645 35.4573 63.7253 35.3271C63.8862 35.197 63.5516 32.3551 63.5516 32.3551C63.5516 32.3551 63.632 30.2787 63.4792 29.0458V29.0257L63.5219 29.0064C63.509 28.9076 63.4953 28.8152 63.48 28.7293L63.435 28.7429C63.4161 28.634 63.3892 28.5266 63.3546 28.4216L63.1407 27.4409C63.1407 27.4409 63.1358 27.3895 63.1302 27.3148C63.123 27.2264 63.1149 27.1067 63.1133 27.0015C63.1126 26.9572 63.1175 26.9129 63.1278 26.8698L63.1165 26.8601C63.1176 26.837 63.1213 26.8141 63.1278 26.7919L63.0811 26.7525C63.0811 26.7525 63.0747 26.7083 63.0699 26.6408C63.0594 26.4914 63.0538 26.2312 63.1278 26.0842C63.2347 25.8697 64.3341 25.0576 64.3341 25.0576L64.9502 23.8263C64.9502 23.8263 65.5646 22.962 66.0318 22.7933C66.4991 22.6246 67.9547 21.6575 67.9547 21.6575C67.9547 21.6575 68.4622 21.1378 68.5024 21.0149L68.5193 20.9892H68.529V20.9723L69.8962 18.9265C70.443 18.4847 70.4631 17.5433 70.4631 17.5433L70.6055 15.3922L70.5588 14.1199L70.6248 13.3969C70.6248 13.3969 71.8263 10.343 70.6787 10.388ZM62.8471 15.9545C62.6986 16.2143 62.6204 16.5083 62.6203 16.8075C62.6203 16.822 62.6203 16.8364 62.6203 16.8509C62.6203 16.8654 62.6203 16.8742 62.6203 16.8854C62.6203 17.1526 62.6829 17.4161 62.8029 17.6549C62.7421 17.7229 62.6969 17.8032 62.6702 17.8903C62.6026 17.8052 62.4048 17.5449 62.3935 17.3722C62.3799 17.165 62.1796 17.022 62.1796 17.022C62.1796 17.022 62.1426 16.6284 62.1925 16.5609L62.1997 16.5545C62.1997 16.5545 62.2053 16.5449 62.2166 16.5288C62.2737 16.4429 62.4659 16.1529 62.6646 15.8227C62.6976 15.8369 62.7317 15.8482 62.7667 15.8565L62.8889 15.887L62.8471 15.9545Z" fill="url(#paint0_linear)"/>
<path d="M66.7431 15.7377C66.7552 15.7104 66.7648 15.6815 66.7745 15.6526C66.7438 15.7165 66.7169 15.7822 66.6941 15.8494C66.711 15.8116 66.7279 15.7747 66.7431 15.7377Z" fill="url(#paint1_linear)"/>
<path d="M63.2044 17.6477C63.2044 17.6477 62.9527 18.8462 62.4887 19.0012C62.0246 19.1562 63.0516 20.5274 63.0516 20.5274L65.1804 20.4109L65.219 19.9667C65.219 19.9667 64.8169 19.0775 65.4901 17.9955C66.1632 16.9136 63.2044 17.6477 63.2044 17.6477Z" fill="#F6BAC2"/>
<path d="M59.866 45.9437C59.837 46.3011 58.9564 46.1662 58.9564 46.1662C57.4959 46.3686 57.7372 44.9388 57.7372 44.9388V44.8657L57.7878 43.5323L57.8023 43.1604C57.8023 43.1604 59.4108 42.4262 59.3698 42.5805C59.3545 42.6383 59.3882 42.7773 59.4349 42.9275C59.5153 43.1773 59.6303 43.46 59.6303 43.46C59.6303 43.46 59.64 44.0496 59.5917 44.2231C59.5435 44.3966 59.8434 44.8609 59.8434 44.8609C59.8434 44.8609 59.8434 44.8898 59.8483 44.9412C59.8721 45.2748 59.878 45.6094 59.866 45.9437Z" fill="#B77983"/>
<path d="M62.6817 46.3299C62.6817 46.3299 61.8011 46.4657 61.7722 46.1074C61.7588 45.7725 61.7639 45.437 61.7874 45.1026C61.7874 45.0544 61.7915 45.0223 61.7915 45.0223C61.7915 45.0223 62.0914 44.558 62.0432 44.3845C61.9949 44.211 62.0046 43.6206 62.0046 43.6206C62.0046 43.6206 62.0359 43.5459 62.077 43.4383C62.163 43.2126 62.2925 42.8463 62.2659 42.7419C62.2273 42.5868 63.8334 43.321 63.8334 43.321L63.8495 43.7371L63.8985 45.0263V45.0994C63.8985 45.0994 64.143 46.5332 62.6817 46.3299Z" fill="#B77983"/>
<path d="M68.7191 9.71737C68.2076 11.36 66.6555 11.8114 66.6555 11.8114C66.6555 11.8114 65.6164 12.5809 65.4684 12.8219C65.3205 13.0629 64.0433 14.0975 63.7072 14.2332C63.371 14.369 63.1145 14.5939 63.2045 14.8959C63.285 15.1762 62.4051 16.5482 62.2724 16.7522L62.2564 16.7779L61.9789 17.0679L61.0372 17.5442L60.2699 17.2992L60.1726 16.3787L60.5795 15.6557C60.8149 15.4901 61.0116 15.2755 61.1562 15.0268C61.4208 14.5882 61.6017 14.2862 61.6017 14.2862C61.6017 14.2862 61.892 13.597 62.3496 13.1906C62.6662 12.9187 63.0074 12.6767 63.3686 12.4677L65.2593 11.3431C65.2593 11.3431 65.6848 11.0275 65.9831 10.9415C66.2815 10.8556 69.229 8.07473 68.7191 9.71737Z" fill="#F6BAC2"/>
<path opacity="0.05" d="M61.0372 16.9523L62.295 16.7009C62.2813 16.715 62.2733 16.7335 62.2724 16.7531L62.2564 16.7788L61.9789 17.0688L61.0372 17.5451L60.2699 17.3001L60.1726 16.3796L60.5795 15.6567C60.1943 16.4599 60.5699 17.0302 60.5699 17.0302L61.0372 16.9523Z" fill="black"/>
<path opacity="0.05" d="M68.3926 21.1018C68.3892 21.1102 68.3862 21.1187 68.3838 21.1275C68.3718 21.1562 68.3562 21.1832 68.3371 21.2078L67.8297 21.4552L67.0552 21.5355L66.6531 20.5628L66.9209 19.4969L67.0689 19.2977L67.1099 19.2527C67.1252 19.4455 67.2032 20.4511 67.1983 20.7532C67.1919 21.0881 67.4396 21.1146 67.4396 21.1146L68.3926 21.1018Z" fill="black"/>
<path d="M68.3538 21.1757C68.3504 21.1841 68.3474 21.1927 68.345 21.2014C68.3064 21.3235 67.8166 21.8392 67.8166 21.8392C67.8166 21.8392 66.41 22.7991 65.9589 22.9637C65.5077 23.1284 64.9134 23.9879 64.9134 23.9879L64.3198 25.2112C64.3198 25.2112 63.2559 26.0144 63.1529 26.2297C63.0813 26.3759 63.087 26.6313 63.0974 26.7823C63.0974 26.849 63.1071 26.8932 63.1071 26.8932L62.7934 27.2201L62.5433 27.4804L62.1911 27.8466L61.6176 27.7663L59.8307 27.4828L59.4881 27.29L57.5861 26.2201C57.5861 26.2201 57.5861 26.1534 57.5812 26.0514C57.5812 26.0064 57.5812 25.955 57.5764 25.898C57.5708 25.7245 57.5627 25.5084 57.5539 25.3245C57.5346 24.9445 57.8249 24.2939 57.8249 24.2939L58.3597 22.979C58.3083 22.7284 58.605 22.0641 58.605 22.0641C58.5535 21.9677 58.8632 21.0078 58.9404 20.9179C59.0176 20.8279 59.1471 20.1508 59.1471 20.1508C59.3079 19.9194 59.5403 18.7403 59.5403 18.7403C59.5403 18.7403 59.8049 17.2454 59.862 16.8719C59.9191 16.4984 60.5697 15.6614 60.5907 15.6357C60.1266 16.4856 60.5327 17.1041 60.5327 17.1041L60.9976 17.0237L62.2562 16.7787C62.1983 16.8173 62.2369 17.2422 62.2369 17.2422C62.3483 17.3269 62.4222 17.4517 62.4428 17.59C62.4548 17.7788 62.684 18.072 62.7267 18.1242L62.7331 18.1314C62.7493 18.0417 62.7848 17.9567 62.8371 17.882C62.8895 17.8074 62.9574 17.7451 63.0363 17.6993L63.3266 18.0864L63.4239 18.5499C63.4239 18.5499 63.3974 18.615 63.2301 18.7435C63.0628 18.872 63.3009 19.2069 63.3009 19.2069C63.3813 19.3427 63.4046 19.8447 63.4046 19.8447C63.6178 19.6584 63.9523 19.6584 63.9523 19.6584C64.0886 19.5218 64.1999 19.3625 64.2812 19.1877C64.288 19.1591 64.3012 19.1324 64.3199 19.1096C64.3385 19.0868 64.362 19.0685 64.3887 19.0561C64.4155 19.0438 64.4446 19.0376 64.4741 19.0381C64.5035 19.0387 64.5324 19.0458 64.5587 19.0592C64.6558 18.9749 64.7618 18.9014 64.8748 18.8399C65.03 18.7595 65.2101 18.9202 65.2101 18.9202L65.2294 19.5138C65.2294 19.5138 65.2447 19.5379 65.2696 19.5708C65.3203 19.6415 65.4112 19.7499 65.4683 19.7315C65.5487 19.7058 66.1969 19.77 66.1969 19.77C66.1969 19.77 66.4229 19.8664 66.5065 19.7443C66.5902 19.6222 67.0695 19.3001 67.0695 19.3001C67.0695 19.3001 67.162 20.4962 67.162 20.8303C67.162 21.1645 67.4032 21.1918 67.4032 21.1918L68.3538 21.1757Z" fill="#D39999"/>
<path d="M63.0756 20.5081C63.1396 20.5081 63.1915 20.4563 63.1915 20.3924C63.1915 20.3286 63.1396 20.2768 63.0756 20.2768C63.0117 20.2768 62.9598 20.3286 62.9598 20.3924C62.9598 20.4563 63.0117 20.5081 63.0756 20.5081Z" fill="#4B4442"/>
<path d="M62.2304 22.1902C62.2944 22.1902 62.3462 22.1384 62.3462 22.0746C62.3462 22.0107 62.2944 21.9589 62.2304 21.9589C62.1665 21.9589 62.1146 22.0107 62.1146 22.0746C62.1146 22.1384 62.1665 22.1902 62.2304 22.1902Z" fill="#4B4442"/>
<path d="M60.5664 25.791C60.6303 25.791 60.6822 25.7393 60.6822 25.6754C60.6822 25.6115 60.6303 25.5597 60.5664 25.5597C60.5024 25.5597 60.4506 25.6115 60.4506 25.6754C60.4506 25.7393 60.5024 25.791 60.5664 25.791Z" fill="#4B4442"/>
<path d="M61.3529 23.9741C61.4168 23.9741 61.4687 23.9223 61.4687 23.8584C61.4687 23.7946 61.4168 23.7428 61.3529 23.7428C61.2889 23.7428 61.2371 23.7946 61.2371 23.8584C61.2371 23.9223 61.2889 23.9741 61.3529 23.9741Z" fill="#4B4442"/>
<path opacity="0.05" d="M59.4416 42.9275C58.8368 43.6456 58.1838 43.6335 57.7946 43.5323L57.809 43.1604C57.809 43.1604 59.4175 42.4262 59.3765 42.5805C59.3612 42.6383 59.3917 42.7773 59.4416 42.9275Z" fill="black"/>
<path opacity="0.05" d="M63.8493 43.7405C62.8223 44.3333 62.2199 43.6385 62.08 43.4417C62.166 43.216 62.2955 42.8497 62.2689 42.7453C62.2303 42.5903 63.8364 43.3244 63.8364 43.3244L63.8493 43.7405Z" fill="black"/>
<path d="M64.2619 42.4905C64.056 42.7869 64.0681 43.5211 64.0681 43.5211C62.7395 44.4745 62.0431 43.3146 62.0431 43.3146C62.0431 43.3146 62.1331 42.5676 61.9787 41.9748C61.8872 41.5901 61.8784 41.1904 61.953 40.8021C61.953 40.8021 61.9272 39.6165 61.8621 39.4494C61.797 39.2824 61.772 38.7924 61.7978 38.6117C61.8235 38.4309 61.6305 38.0197 61.6305 38.0197C61.6305 38.0197 61.6305 37.504 61.5396 37.3883C61.4487 37.2726 61.3466 36.4469 61.3466 36.4469L60.7281 34.1279C60.7281 34.1279 60.47 32.7239 60.3671 32.4146C60.2641 32.1054 60.1346 32.1696 60.1346 32.1696L59.7631 33.8316L59.4792 36.6662C59.3368 36.9875 59.3988 37.7361 59.3988 37.7361L59.4888 38.8309L59.3393 40.7121C59.3389 40.7153 59.3389 40.7186 59.3393 40.7218C59.3391 40.7399 59.3433 40.7578 59.3514 40.774C59.3595 40.7901 59.3713 40.8042 59.3859 40.815C59.6397 41.385 59.7151 42.0183 59.6022 42.6319C58.6219 44.0496 57.4348 43.3146 57.4348 43.3146C57.409 42.9909 57.3307 42.6736 57.2032 42.3749C56.9837 41.8335 57.2418 39.6438 57.2418 39.6438L57.048 38.2261C57.048 38.2261 57.0351 37.3755 56.9965 37.2622C56.9579 37.1489 56.9708 36.3088 56.9708 36.3088L56.9965 35.4196C56.6612 34.2854 56.8285 32.495 56.8285 32.495C56.8285 32.495 56.777 29.6346 56.8807 29.5053C56.9555 29.4121 56.9081 28.988 56.9403 28.682C56.9437 28.5891 56.9696 28.4984 57.0158 28.4177L57.0287 28.4048C57.1968 28.1984 57.1968 27.3743 57.1831 27.0514C57.1767 26.8811 57.2933 26.6048 57.4043 26.3831C57.4847 26.2272 57.5579 26.0987 57.5852 26.0521L57.5965 26.0337C57.5965 26.0337 58.3316 26.2144 60.2794 27.1421C60.6282 27.3146 61.0023 27.4304 61.3876 27.4851C61.5793 27.5107 61.7734 27.5137 61.9659 27.494C62.2595 27.4658 62.5433 27.3736 62.7974 27.2241C62.9318 27.1475 63.0531 27.0502 63.1569 26.9357C63.1304 27.016 63.1465 27.2907 63.1569 27.4546C63.1617 27.5293 63.1674 27.5799 63.1674 27.5799L63.3821 28.5358C63.4171 28.6491 63.4439 28.7648 63.4625 28.882C63.4778 28.9671 63.4907 29.0595 63.5027 29.1575C63.6531 30.38 63.5727 32.4403 63.5727 32.4403C63.5727 32.4403 63.8944 35.2621 63.7408 35.3906C63.5872 35.5192 63.7142 35.9577 63.7142 35.9577C63.831 36.2092 63.901 36.4797 63.9209 36.7562C63.9198 36.9721 63.9732 37.1848 64.0761 37.3747L64.0239 38.6502L64.159 41.4174C64.159 41.4174 64.4686 42.1941 64.2619 42.4905Z" fill="#8499F0"/>
<path opacity="0.05" d="M62.7494 37.8261C62.7494 37.8261 63.7265 37.2639 63.9396 37.5169C64.1528 37.7699 62.7494 37.8261 62.7494 37.8261Z" fill="black"/>
<path opacity="0.05" d="M63.3396 38.1352C63.3396 38.1352 63.1788 38.2155 63.5334 38.3184C63.8881 38.4212 63.3396 38.1352 63.3396 38.1352Z" fill="black"/>
<path opacity="0.05" d="M57.4311 36.589C57.3981 36.5986 58.2442 37.1593 59.0082 36.695C59.005 36.695 57.6217 36.5312 57.4311 36.589Z" fill="black"/>
<path opacity="0.05" d="M58.9663 37.6614C58.9663 37.6614 58.7346 38.116 58.2602 38.1835C57.7857 38.251 58.9663 37.6614 58.9663 37.6614Z" fill="black"/>
<path opacity="0.05" d="M62.0723 38.6478C62.0723 38.6478 63.1853 40.4149 62.9722 40.8318C62.7591 41.2487 62.0723 38.6478 62.0723 38.6478Z" fill="black"/>
<path opacity="0.05" d="M60.1948 27.93L60.079 31.3896C60.079 31.3896 60.7658 31.3607 60.8832 30.2209C61.0006 29.0811 61.0867 28.1525 61.0867 28.1525L60.1948 27.93Z" fill="black"/>
<path d="M60.1563 27.8531L60.0405 31.3126C60.0405 31.3126 60.7273 31.2837 60.8448 30.1431C60.9622 29.0025 61.0498 28.0756 61.0498 28.0756L60.1563 27.8531Z" fill="#8499F0"/>
<path opacity="0.05" d="M58.7636 28.008C58.7636 28.008 58.2216 29.4594 56.9814 28.7566C56.9847 28.6637 57.0107 28.5729 57.057 28.4923C57.3964 28.6345 58.183 28.8425 58.5047 27.9011L58.7636 28.008Z" fill="black"/>
<path opacity="0.05" d="M58.725 27.853C58.725 27.853 58.183 29.3045 56.9429 28.6016C56.9463 28.5087 56.9722 28.418 57.0185 28.3373C57.3579 28.4803 58.1444 28.6876 58.4661 27.747L58.725 27.853Z" fill="black"/>
<path d="M58.725 27.9302C58.725 27.9302 58.183 29.3817 56.9429 28.6788C56.9463 28.5859 56.9722 28.4952 57.0185 28.4145C57.3579 28.5575 58.1444 28.7648 58.4661 27.8242L58.725 27.9302Z" fill="#8499F0"/>
<path opacity="0.05" d="M63.4701 29.2346C62.1077 29.882 61.6083 28.3558 61.6083 28.3558L61.93 28.3655C61.9863 29.3414 63.0631 29.0788 63.4323 28.9591C63.4451 29.0474 63.458 29.1366 63.4701 29.2346Z" fill="black"/>
<path opacity="0.05" d="M63.5472 29.1189C62.1857 29.7655 61.6854 28.2394 61.6854 28.2394L62.0071 28.249C62.0634 29.2249 63.1403 28.9631 63.5094 28.8434C63.5223 28.9285 63.5351 29.0209 63.5472 29.1189Z" fill="black"/>
<path d="M63.5088 29.1575C62.1472 29.8041 61.647 28.278 61.647 28.278L61.9687 28.2876C62.025 29.2643 63.1018 29.0017 63.471 28.882C63.4838 28.9671 63.4967 29.0595 63.5088 29.1575Z" fill="#8499F0"/>
<path opacity="0.1" d="M58.725 27.9302C58.725 27.9302 58.183 29.3817 56.9429 28.6788C56.9463 28.5859 56.9722 28.4952 57.0185 28.4145C57.3579 28.5575 58.1444 28.7648 58.4661 27.8242L58.725 27.9302Z" fill="white"/>
<path opacity="0.1" d="M63.5088 29.1575C62.1472 29.8041 61.647 28.278 61.647 28.278L61.9687 28.2876C62.025 29.2643 63.1018 29.0017 63.471 28.882C63.4838 28.9671 63.4967 29.0595 63.5088 29.1575Z" fill="white"/>
<path opacity="0.05" d="M59.876 45.6745C59.876 45.7733 59.876 45.8657 59.8663 45.942C59.8374 46.2994 58.9567 46.1645 58.9567 46.1645C58.1525 46.2762 57.863 45.8906 57.7673 45.5219C57.7372 45.4021 57.7224 45.2791 57.7231 45.1556C57.7225 45.082 57.7274 45.0084 57.7375 44.9355V44.8624C57.8229 44.8367 57.9132 44.8326 58.0005 44.8504C58.0879 44.8682 58.1694 44.9074 58.2378 44.9644C58.5956 45.2544 59.0701 45.0319 59.0701 45.0319C59.0701 45.0319 59.4184 45.0608 59.5527 45.1765C59.6283 45.2416 59.7529 45.0849 59.8478 44.9355C59.8535 45.0319 59.8623 45.2062 59.8679 45.3926C59.8744 45.4882 59.876 45.5846 59.876 45.6745Z" fill="black"/>
<path opacity="0.05" d="M58.4635 45.6536C58.4635 45.6536 58.2222 45.8897 57.767 45.5251C57.737 45.4053 57.7221 45.2822 57.7228 45.1588C57.9552 45.3355 58.3863 45.6536 58.4635 45.6536Z" fill="black"/>
<path opacity="0.05" d="M59.8759 45.6745C59.8562 45.6896 59.8337 45.7006 59.8097 45.7067C59.7857 45.7128 59.7606 45.7139 59.7362 45.71C59.7117 45.7061 59.6882 45.6972 59.6673 45.6839C59.6464 45.6706 59.6284 45.6532 59.6145 45.6327C59.7083 45.5614 59.7946 45.4806 59.8718 45.3917C59.8743 45.4881 59.8759 45.5845 59.8759 45.6745Z" fill="black"/>
<path opacity="0.05" d="M61.7635 45.84C61.7635 45.9396 61.7635 46.032 61.7723 46.1075C61.8013 46.4657 62.6819 46.33 62.6819 46.33C63.4862 46.4424 63.7757 46.0569 63.8714 45.6874C63.9188 45.4956 63.9289 45.2966 63.9011 45.101V45.0279C63.8156 45.0026 63.7252 44.9987 63.6379 45.0165C63.5505 45.0343 63.4689 45.0732 63.4001 45.1299C63.0422 45.4199 62.5685 45.1974 62.5685 45.1974C62.5685 45.1974 62.2203 45.2271 62.086 45.3428C62.0104 45.4078 61.8857 45.2512 61.7916 45.1018C61.786 45.1982 61.7764 45.3725 61.7707 45.5588C61.7643 45.6528 61.7627 45.7492 61.7635 45.84Z" fill="black"/>
<path opacity="0.05" d="M63.1754 45.8174C63.1754 45.8174 63.4167 46.0536 63.8711 45.6889C63.9014 45.5695 63.9165 45.4467 63.9161 45.3234C63.6829 45.4993 63.2518 45.8174 63.1754 45.8174Z" fill="black"/>
<path opacity="0.05" d="M61.7635 45.8402C61.7831 45.8554 61.8055 45.8663 61.8295 45.8724C61.8535 45.8785 61.8784 45.8796 61.9029 45.8757C61.9273 45.8718 61.9506 45.8629 61.9715 45.8496C61.9923 45.8363 62.0102 45.8189 62.0241 45.7985C61.9302 45.7273 61.8439 45.6465 61.7667 45.5575C61.7643 45.6531 61.7627 45.7495 61.7635 45.8402Z" fill="black"/>
<path opacity="0.05" d="M60.7019 21.1756C60.7019 21.1756 59.4634 24.5902 59.9403 24.8866C60.4172 25.183 60.7019 21.1756 60.7019 21.1756Z" fill="black"/>
<path opacity="0.05" d="M61.6047 20.1217C61.6047 20.1217 61.3715 21.2559 61.4881 21.3587C61.6047 21.4615 61.6047 20.1217 61.6047 20.1217Z" fill="black"/>
<path opacity="0.05" d="M64.1059 22.7637C64.1059 22.7637 62.5834 24.1806 62.6864 24.2971C62.7893 24.4135 64.1059 22.7637 64.1059 22.7637Z" fill="black"/>
<path opacity="0.05" d="M65.2696 19.6448C64.693 19.8207 63.3451 20.2319 63.3298 20.2287L63.4046 19.9219C63.6178 19.7355 63.9523 19.7355 63.9523 19.7355C64.0885 19.5989 64.1999 19.4397 64.2812 19.2648C64.288 19.2362 64.3012 19.2095 64.3198 19.1867C64.3385 19.1639 64.362 19.1457 64.3887 19.1333C64.4154 19.1209 64.4446 19.1148 64.4741 19.1153C64.5035 19.1158 64.5324 19.123 64.5587 19.1363C64.656 19.0523 64.762 18.9788 64.8748 18.917C65.03 18.8367 65.2101 18.9973 65.2101 18.9973L65.2294 19.5901C65.2294 19.5901 65.2447 19.6118 65.2696 19.6448Z" fill="black"/>
<path d="M65.2696 19.5692C64.693 19.7451 63.3451 20.1563 63.3298 20.1523L63.4046 19.8463C63.6178 19.6599 63.9523 19.6599 63.9523 19.6599C64.0885 19.5234 64.1999 19.3641 64.2812 19.1892C64.288 19.1606 64.3012 19.1339 64.3198 19.1111C64.3385 19.0883 64.362 19.0701 64.3887 19.0577C64.4154 19.0453 64.4446 19.0392 64.4741 19.0397C64.5035 19.0402 64.5324 19.0474 64.5587 19.0607C64.6558 18.9765 64.7618 18.9029 64.8748 18.8414C65.03 18.7611 65.2101 18.9218 65.2101 18.9218L65.2294 19.5154C65.2294 19.5154 65.2447 19.5346 65.2696 19.5692Z" fill="#D39999"/>
<path opacity="0.05" d="M63.2623 19.2479C63.3427 19.3837 63.3652 19.8857 63.3652 19.8857L63.1408 20.064L62.7146 18.8367L62.6953 18.1989L62.6873 18.1627L62.6937 18.17C62.7098 18.0804 62.7452 17.9954 62.7976 17.9209C62.85 17.8464 62.918 17.7842 62.9969 17.7386L63.2872 18.125L63.3845 18.5885C63.3845 18.5885 63.358 18.6535 63.1907 18.782C63.0234 18.9106 63.2623 19.2479 63.2623 19.2479Z" fill="black"/>
<path d="M63.3017 19.2069C63.3821 19.3427 63.4055 19.8447 63.4055 19.8447L63.1811 20.0254L62.7548 18.7981L62.7355 18.1603L62.7267 18.1241L62.7331 18.1314C62.7493 18.0417 62.7848 17.9566 62.8371 17.882C62.8895 17.8074 62.9575 17.745 63.0363 17.6992L63.3266 18.0864L63.424 18.5499C63.424 18.5499 63.3974 18.6149 63.2301 18.7434C63.0629 18.872 63.3017 19.2069 63.3017 19.2069Z" fill="#D39999"/>
<path opacity="0.05" d="M66.1454 17.1073C66.1452 17.4512 66.043 17.7873 65.8516 18.0732C65.6601 18.3591 65.3882 18.5818 65.07 18.7133C64.7518 18.8448 64.4018 18.8792 64.0641 18.812C63.7264 18.7448 63.4162 18.5791 63.1728 18.3359C62.9293 18.0926 62.7636 17.7828 62.6965 17.4454C62.6294 17.1081 62.6639 16.7585 62.7957 16.4408C62.9275 16.1231 63.1507 15.8515 63.437 15.6605C63.7233 15.4694 64.0599 15.3674 64.4042 15.3674C64.6335 15.3655 64.8608 15.4092 65.073 15.496C65.2852 15.5827 65.4779 15.7108 65.64 15.8728C65.8021 16.0347 65.9302 16.2273 66.017 16.4393C66.1038 16.6512 66.1474 16.8783 66.1454 17.1073Z" fill="black"/>
<path d="M66.1454 17.0292C66.1456 17.3734 66.0435 17.7099 65.8522 17.9961C65.6608 18.2824 65.3888 18.5055 65.0704 18.6373C64.7521 18.7691 64.4018 18.8036 64.0638 18.7365C63.7258 18.6694 63.4154 18.5037 63.1717 18.2603C62.928 18.0169 62.7621 17.7068 62.6949 17.3693C62.6277 17.0317 62.6623 16.6818 62.7943 16.3639C62.9262 16.0459 63.1496 15.7742 63.4362 15.5831C63.7228 15.392 64.0597 15.2901 64.4043 15.2902C64.6333 15.2889 64.8603 15.333 65.0721 15.42C65.2839 15.5069 65.4764 15.635 65.6383 15.7967C65.8002 15.9585 65.9284 16.1507 66.0155 16.3622C66.1025 16.5738 66.1467 16.8005 66.1454 17.0292Z" fill="#F6BAC2"/>
<path opacity="0.05" d="M66.1455 17.0293C66.1461 17.3481 66.0584 17.6608 65.8922 17.933C65.8664 17.8872 65.8512 17.8342 65.8254 17.7876C65.7892 17.7225 65.7056 17.6679 65.6437 17.7073C65.6177 17.7284 65.598 17.7562 65.5866 17.7876C65.5359 17.8944 65.4458 18.0012 65.3276 17.9988C65.2762 17.9933 65.2276 17.9724 65.1883 17.9389C65.149 17.9054 65.1207 17.8607 65.1073 17.8109C65.0824 17.7105 65.0781 17.6061 65.0944 17.504C65.1121 17.2952 65.1153 17.0542 64.9601 16.9137C64.8599 16.8405 64.7453 16.7893 64.6239 16.7634C64.5057 16.7249 64.3826 16.6638 64.3344 16.5498C64.3022 16.4695 64.3103 16.3843 64.2813 16.3088C64.2514 16.2483 64.2073 16.1959 64.1529 16.1559C64.0985 16.1159 64.0352 16.0896 63.9685 16.0791C63.8147 16.2059 63.6201 16.2724 63.4208 16.2662C63.2382 16.2619 63.057 16.2333 62.882 16.1811C63.0697 15.8447 63.3639 15.58 63.7184 15.4285C64.073 15.277 64.4678 15.2473 64.8411 15.344C65.2143 15.4408 65.5449 15.6585 65.781 15.963C66.017 16.2676 66.1452 16.6418 66.1455 17.0269V17.0293Z" fill="black"/>
<path d="M64.2811 16.2334C64.3101 16.3137 64.302 16.4005 64.3342 16.4744C64.3816 16.5884 64.5055 16.6495 64.6237 16.688C64.745 16.7138 64.8595 16.7647 64.9599 16.8374C65.1151 16.9788 65.1119 17.2198 65.0942 17.4286C65.0778 17.5307 65.0822 17.6351 65.107 17.7355C65.1207 17.7852 65.149 17.8297 65.1883 17.8632C65.2276 17.8968 65.2761 17.9177 65.3274 17.9234C65.4456 17.9234 65.5357 17.819 65.5864 17.7122C65.5979 17.6808 65.6176 17.6531 65.6435 17.6319C65.7054 17.5909 65.789 17.6455 65.8252 17.7122C65.8505 17.7817 65.8855 17.8474 65.929 17.9074C65.9576 17.932 65.9918 17.9493 66.0287 17.9577C66.0656 17.9661 66.104 17.9654 66.1405 17.9556C66.2132 17.9357 66.2809 17.9007 66.3391 17.8527C66.5003 17.7407 66.6281 17.5872 66.7091 17.4086C66.7485 17.3193 66.7669 17.2222 66.7628 17.1247C66.7588 17.0272 66.7324 16.932 66.6857 16.8463C66.6254 16.7451 66.5297 16.6639 66.4919 16.5523C66.426 16.3603 66.5498 16.1627 66.6262 15.9748C66.6994 15.8029 66.7231 15.614 66.6946 15.4294C66.6798 15.3374 66.6467 15.2494 66.5974 15.1704C66.5481 15.0913 66.4836 15.0229 66.4075 14.9691C66.1019 14.7659 65.6885 14.8775 65.3346 14.7795C65.208 14.738 65.0847 14.6873 64.9655 14.6277C64.7849 14.5476 64.5962 14.4873 64.4025 14.4478C64.2103 14.4092 63.9779 14.4044 63.8565 14.5578C63.8233 14.607 63.7937 14.6586 63.768 14.7121C63.7301 14.7756 63.6798 14.831 63.6201 14.8748C63.5605 14.9187 63.4926 14.9502 63.4206 14.9675C63.3168 14.9924 63.2083 14.986 63.0989 15.0012C63.0455 15.0049 62.9937 15.0207 62.9474 15.0472C62.901 15.0738 62.8612 15.1105 62.8311 15.1547C62.778 15.251 62.8005 15.3683 62.8134 15.4759C62.8263 15.5836 62.8198 15.7121 62.733 15.7788C62.692 15.8101 62.6357 15.8254 62.6107 15.8695C62.5993 15.8954 62.5968 15.9244 62.6036 15.9519C62.6105 15.9794 62.6263 16.0038 62.6485 16.0214C62.6937 16.0555 62.7464 16.0786 62.8021 16.0888C63.0021 16.1512 63.2096 16.1866 63.419 16.194C63.6306 16.2009 63.8366 16.1251 63.9932 15.9828C63.9795 15.9965 63.8911 15.9908 63.875 15.99C64.031 16.0069 64.2224 16.076 64.2811 16.2334Z" fill="#7E646B"/>
<g opacity="0.05">
<path opacity="0.05" d="M66.4379 17.6573C66.3796 17.7052 66.3119 17.7405 66.2393 17.761C66.2028 17.7704 66.1646 17.7709 66.1279 17.7623C66.0912 17.7538 66.0571 17.7365 66.0286 17.712C65.9846 17.6522 65.9494 17.5864 65.924 17.5168C65.8878 17.4517 65.8042 17.3971 65.7423 17.4364C65.7167 17.458 65.6971 17.4856 65.6852 17.5168C65.6353 17.6236 65.5444 17.7304 65.4262 17.728C65.3748 17.7226 65.3264 17.7017 65.2872 17.6681C65.248 17.6346 65.2199 17.5899 65.2066 17.5401C65.1816 17.4397 65.1769 17.3354 65.193 17.2332C65.2115 17.0244 65.2139 16.7842 65.0595 16.6428C64.959 16.5697 64.8441 16.5185 64.7225 16.4926C64.6051 16.4541 64.4812 16.393 64.433 16.279C64.4008 16.1986 64.4088 16.1135 64.3799 16.038C64.3324 15.9103 64.1981 15.8404 64.0671 15.8083C63.9128 15.9342 63.7185 16.0009 63.5194 15.9962C63.31 15.9881 63.1026 15.9525 62.9025 15.8902C62.8469 15.8799 62.7944 15.8571 62.7489 15.8235C62.7396 15.8149 62.7312 15.8052 62.724 15.7946C62.6885 15.8098 62.6574 15.8339 62.6339 15.8645C62.6225 15.8904 62.62 15.9194 62.6268 15.9469C62.6337 15.9743 62.6495 15.9988 62.6717 16.0163C62.7169 16.0505 62.7696 16.0736 62.8253 16.0838C63.0253 16.1462 63.2328 16.1815 63.4422 16.189C63.6411 16.1943 63.8352 16.1279 63.989 16.0019C64.1201 16.034 64.2552 16.1031 64.3027 16.2308C64.3316 16.3111 64.3236 16.3979 64.3558 16.4718C64.404 16.5858 64.5271 16.6469 64.6453 16.6854C64.7666 16.7111 64.8811 16.762 64.9815 16.8348C65.1367 16.9762 65.1335 17.2172 65.1158 17.426C65.0994 17.5281 65.1038 17.6325 65.1286 17.7328C65.1423 17.7826 65.1706 17.8271 65.2099 17.8606C65.2492 17.8941 65.2976 17.9151 65.349 17.9208C65.4672 17.9208 65.5573 17.8164 65.6079 17.7096C65.6195 17.6782 65.6392 17.6504 65.665 17.6292C65.727 17.5883 65.8106 17.6429 65.8468 17.7096C65.8721 17.7793 65.9073 17.845 65.9514 17.9047C65.9798 17.9294 66.0139 17.9467 66.0507 17.9551C66.0874 17.9635 66.1257 17.9628 66.1621 17.9529C66.2348 17.9331 66.3025 17.898 66.3607 17.8501C66.5219 17.7381 66.6497 17.5846 66.7306 17.4059C66.7449 17.3715 66.7565 17.3361 66.7652 17.2999C66.6829 17.441 66.5713 17.5629 66.4379 17.6573Z" fill="black"/>
<path opacity="0.05" d="M66.5989 16.0815C66.6158 16.0445 66.6318 16.0076 66.6471 15.9714C66.6624 15.9353 66.668 15.9152 66.6769 15.8863C66.6473 15.9498 66.6213 16.015 66.5989 16.0815Z" fill="black"/>
<path opacity="0.05" d="M62.8384 15.5762C62.9188 15.5079 62.9245 15.3858 62.9116 15.2806C62.9021 15.2192 62.897 15.1571 62.8963 15.095C62.8792 15.1117 62.8643 15.1306 62.8521 15.1512C62.799 15.2476 62.8215 15.3649 62.8344 15.4725C62.8386 15.5069 62.84 15.5416 62.8384 15.5762Z" fill="black"/>
</g>
<path opacity="0.05" d="M63.1555 27.5342C63.0059 27.5446 62.796 27.5559 62.5435 27.5647C62.3681 27.5704 62.1719 27.5744 61.962 27.5744C61.7786 27.5744 61.5848 27.5744 61.3838 27.5655C60.7478 27.5491 60.1141 27.4839 59.4882 27.3703C58.6526 27.2097 57.8798 26.9326 57.3972 26.4635C57.4776 26.3077 57.5508 26.1783 57.5782 26.1325C57.5782 26.0876 57.5782 26.0354 57.5733 25.9791C58.4218 26.3807 61.0669 27.4965 63.0943 26.8627C63.0943 26.9294 63.104 26.9735 63.104 26.9735L63.1498 27.0121C63.1265 27.0956 63.141 27.3703 63.1555 27.5342Z" fill="black"/>
<path d="M63.1555 27.4571C63.0059 27.4676 62.796 27.4788 62.5435 27.4868C62.3681 27.4933 62.1719 27.4965 61.962 27.4965C61.7786 27.4965 61.5848 27.4965 61.3838 27.4876C60.7479 27.4715 60.1141 27.4065 59.4882 27.2933C58.6526 27.1326 57.8798 26.8547 57.3972 26.3856C57.4776 26.2298 57.5508 26.1013 57.5782 26.0547C57.5782 26.0097 57.5782 25.9583 57.5733 25.9012C58.4218 26.3029 61.0669 27.4194 63.0943 26.7888C63.0943 26.8555 63.104 26.8997 63.104 26.8997L63.1498 26.9382C63.1265 27.0186 63.141 27.2933 63.1555 27.4571Z" fill="#4B4442"/>
<path d="M23.0157 62.6127C22.9193 62.4968 22.8476 62.3623 22.8052 62.2177C22.7627 62.0731 22.7503 61.9213 22.7688 61.7717L26.3187 32.7609L26.613 30.3512C26.646 30.0831 26.7755 29.8362 26.9773 29.6565C27.1792 29.4768 27.4396 29.3765 27.71 29.3745L38.1078 29.3054C38.2559 29.3045 38.4023 29.274 38.5384 29.2159C38.6745 29.1577 38.7977 29.073 38.9006 28.9667C39.0035 28.8604 39.0841 28.7346 39.1378 28.5968C39.1914 28.4589 39.2169 28.3118 39.2128 28.164L39.2088 28.0539C39.2037 27.9049 39.2288 27.7563 39.2824 27.6171C39.336 27.4779 39.4171 27.3509 39.5209 27.2436C39.6246 27.1364 39.749 27.0511 39.8864 26.9928C40.0239 26.9345 40.1717 26.9045 40.3211 26.9045H51.2473C51.5418 26.9045 51.8244 27.0212 52.0329 27.229C52.2414 27.4368 52.3589 27.7187 52.3595 28.013C52.3594 28.0629 52.3562 28.1128 52.3499 28.1624C52.3291 28.317 52.3413 28.4742 52.3854 28.6238C52.4296 28.7734 52.5048 28.912 52.6061 29.0307C52.7075 29.1494 52.8327 29.2454 52.9737 29.3125C53.1147 29.3796 53.2682 29.4163 53.4243 29.4202L63.9178 29.6877C64.0774 29.6916 64.2342 29.7298 64.3777 29.7997C64.5212 29.8696 64.6479 29.9695 64.7492 30.0927C64.8505 30.2158 64.9241 30.3594 64.965 30.5135C65.0058 30.6676 65.0129 30.8287 64.9859 30.9858L59.7399 61.5894L59.641 62.1677C59.6165 62.3155 59.5618 62.4566 59.4801 62.5822L23.0157 62.6127Z" fill="#B7B6CC"/>
<g opacity="0.5">
<path opacity="0.5" d="M54.5929 20.5234L42.578 37.8928L47.8952 41.5618L59.9101 24.1924L54.5929 20.5234Z" fill="url(#paint2_linear)"/>
</g>
<path d="M59.7378 24.2464L54.6826 20.7581L42.8286 37.8949L47.8837 41.3832L59.7378 24.2464Z" fill="#F9FAFB"/>
<path d="M58.6086 24.043L55.0469 21.5702L52.571 25.1276L56.1328 27.6005L58.6086 24.043Z" fill="#F7B643"/>
<path opacity="0.5" d="M55.8302 28.3231L52.2565 25.8571L49.7875 29.4264L53.3611 31.8924L55.8302 28.3231Z" fill="#F7B643"/>
<path opacity="0.3" d="M52.8488 32.6323L49.2751 30.1664L46.8061 33.7357L50.3798 36.2017L52.8488 32.6323Z" fill="#F7B643"/>
<g opacity="0.5">
<path opacity="0.5" d="M47.376 19.4893L41.4691 39.6779L47.6724 41.4885L53.5794 21.2999L47.376 19.4893Z" fill="url(#paint3_linear)"/>
</g>
<path d="M53.438 21.4062L47.5404 19.6849L41.7129 39.602L47.6105 41.3234L53.438 21.4062Z" fill="#F9FAFB"/>
<path d="M52.4841 21.4767L48.3148 20.2598L47.0964 24.424L51.2657 25.6409L52.4841 21.4767Z" fill="#F97878"/>
<path opacity="0.5" d="M51.0129 26.5039L46.8436 25.287L45.6252 29.4512L49.7945 30.6681L51.0129 26.5039Z" fill="#F97878"/>
<path opacity="0.3" d="M49.5417 31.5304L45.3724 30.3135L44.1541 34.4776L48.3233 35.6945L49.5417 31.5304Z" fill="#F97878"/>
<g opacity="0.5">
<path opacity="0.5" d="M43.1691 19.8403L41.4802 40.8055L47.9222 41.3232L49.6111 20.358L43.1691 19.8403Z" fill="url(#paint4_linear)"/>
</g>
<path d="M49.4873 20.491L43.3628 19.9989L41.6966 40.6822L47.8211 41.1744L49.4873 20.491Z" fill="#F9FAFB"/>
<path d="M48.5639 20.7537L44.2343 20.4058L43.8859 24.7301L48.2155 25.078L48.5639 20.7537Z" fill="#73B53B"/>
<path opacity="0.5" d="M48.143 25.9732L43.8134 25.6253L43.465 29.9496L47.7946 30.2976L48.143 25.9732Z" fill="#73B53B"/>
<path opacity="0.3" d="M47.7227 31.1944L43.3931 30.8465L43.0447 35.1708L47.3743 35.5188L47.7227 31.1944Z" fill="#73B53B"/>
<g opacity="0.5">
<path opacity="0.5" d="M46.8447 20.4051L40.3887 20.6991L41.3476 41.7102L47.8037 41.4163L46.8447 20.4051Z" fill="url(#paint5_linear)"/>
</g>
<path d="M46.7453 20.5511L40.6074 20.8305L41.5535 41.5592L47.6914 41.2798L46.7453 20.5511Z" fill="white"/>
<path d="M45.8615 20.9261L41.5223 21.1237L41.7201 25.4575L46.0593 25.26L45.8615 20.9261Z" fill="#2670FA"/>
<path opacity="0.5" d="M46.2749 25.9728L41.9313 26.1897L42.1485 30.5281L46.4921 30.3111L46.2749 25.9728Z" fill="#2670FA"/>
<path opacity="0.3" d="M46.3389 31.3903L41.9998 31.5879L42.1976 35.9217L46.5367 35.7242L46.3389 31.3903Z" fill="#2670FA"/>
<path d="M43.2137 48.176L37.7547 50.2853L29.7759 53.3657C29.4744 52.8034 29.0304 52.0436 28.4811 51.1367C26.5912 48.0089 23.4644 43.1436 20.6801 38.868C17.5437 34.0485 14.8439 29.9817 14.8439 29.9817L16.7981 29.4194L32.762 24.7903L43.2137 48.176Z" fill="#E6ECF8"/>
<path opacity="0.1" d="M43.2137 48.176L37.7547 50.2853C34.7051 50.9198 31.593 51.2055 28.4787 51.1367C26.5888 48.0089 23.462 43.1436 20.6777 38.868L16.799 29.4162L32.762 24.7903L43.2137 48.176Z" fill="black"/>
<path d="M47.2754 46.8634C47.2754 46.8634 38.7949 51.874 26.1331 50.7407L16.0393 26.1614L20.8767 25.3308L37.5998 22.4624L47.0897 46.3855L47.2754 46.8634Z" fill="#2670FA"/>
<path opacity="0.1" d="M47.0862 46.3887C45.0893 46.4867 42.7787 46.477 40.4545 46.1999C37.9389 45.9043 35.4088 45.2955 33.2398 44.1789C31.4263 43.2464 29.8758 42.2319 28.5238 41.015C25.007 37.8558 22.8307 33.3367 20.8765 25.334L37.5995 22.4656L47.0862 46.3887Z" fill="black"/>
<path d="M53.3079 45.0142C53.3079 45.0142 47.0567 46.2367 40.6936 45.4841C38.178 45.1885 35.6479 44.5796 33.4789 43.4631C31.6654 42.5306 30.1157 41.5161 28.7629 40.2992C24.4105 36.3882 22.112 30.3944 19.7419 18.2903C19.7419 18.2903 30.1342 20.7956 40.4105 15.3078C40.4073 15.3118 43.8711 36.9014 53.3079 45.0142Z" fill="#F9FAFB"/>
<path opacity="0.1" d="M40.6933 45.4843C38.1777 45.1887 35.6476 44.5799 33.4786 43.4634C31.665 42.5308 30.1153 41.5163 28.7626 40.2994C32.4685 39.999 33.0008 37.9756 33.0008 37.9756C35.7481 42.33 40.6933 45.4843 40.6933 45.4843Z" fill="black"/>
<path opacity="0.3" d="M25.1174 22.7339C25.1174 22.7339 33.5682 22.2568 35.9278 20.4374L36.2857 21.586C36.2857 21.586 30.702 24.0464 25.1174 24.0761V22.7339Z" fill="#2670FA"/>
<path opacity="0.3" d="M25.1174 28.4048C25.1174 28.4048 33.2996 27.9574 39.4817 24.975L39.6908 25.4521C39.6908 25.4521 34.785 28.3125 25.1174 29.0611V28.4048Z" fill="#2670FA"/>
<path opacity="0.3" d="M25.7759 30.6146C25.7759 30.6146 33.9581 30.1672 40.1394 27.1848L40.3485 27.6619C40.3485 27.6619 35.4427 30.5215 25.7759 31.2709V30.6146Z" fill="#2670FA"/>
<path opacity="0.3" d="M26.4337 32.8275C26.4337 32.8275 34.6159 32.3801 40.798 29.3977L41.0063 29.8748C41.0063 29.8748 36.1005 32.7351 26.4337 33.4838V32.8275Z" fill="#2670FA"/>
<path opacity="0.3" d="M27.0922 35.0404C27.0922 35.0404 35.2744 34.593 41.4556 31.6105L41.6647 32.0877C41.6647 32.0877 36.759 34.948 27.0922 35.6966V35.0404Z" fill="#2670FA"/>
<path opacity="0.3" d="M27.7502 37.2542C27.7502 37.2542 35.9324 36.8068 42.1145 33.8243L42.3228 34.3015C42.3228 34.3015 37.417 37.161 27.7502 37.9104V37.2542Z" fill="#2670FA"/>
<path d="M85.2823 64.7306C85.2823 64.7306 81.882 64.5258 82.2825 66.9058C82.2825 66.9058 82.2021 67.3259 82.5849 67.5171C82.5849 67.5171 82.5906 67.3404 82.9332 67.4006C83.0553 67.4211 83.1795 67.4271 83.3031 67.4183C83.4699 67.4071 83.6284 67.3417 83.7543 67.2319C83.7543 67.2319 84.7105 66.8376 85.0821 65.2777C85.0821 65.2777 85.3571 64.9371 85.3459 64.8495L84.7725 65.0905C84.7725 65.0905 84.9687 65.5042 84.8143 65.8472C84.8143 65.8472 84.7958 65.1058 84.6856 65.1242C84.6631 65.1242 84.3872 65.2672 84.3872 65.2672C84.3872 65.2672 84.7242 65.9901 84.4677 66.5106C84.4677 66.5106 84.5642 65.623 84.2795 65.3194L83.8773 65.5548C83.8773 65.5548 84.2714 66.2986 84.0044 66.9058C84.0044 66.9058 84.0728 65.9749 83.7921 65.6118L83.4262 65.897C83.4262 65.897 83.7969 66.6303 83.5709 67.1339C83.5709 67.1339 83.5412 66.0496 83.3465 65.9676C83.3465 65.9676 83.0249 66.2496 82.9782 66.3693C82.9782 66.3693 83.2315 66.901 83.0739 67.1821C83.0739 67.1821 82.9774 66.4592 82.8986 66.4592C82.8986 66.4592 82.5769 66.9412 82.5463 67.2625C82.5463 67.2625 82.56 66.7741 82.8214 66.4102C82.6372 66.4453 82.4673 66.5333 82.3324 66.6632C82.3324 66.6632 82.3823 66.3243 82.9002 66.2954C82.9002 66.2954 83.164 65.9323 83.234 65.9098C83.234 65.9098 82.7193 65.8672 82.4072 66.0054C82.4072 66.0054 82.6823 65.6841 83.3289 65.8311L83.69 65.5371C83.69 65.5371 83.012 65.4439 82.7249 65.5467C82.7249 65.5467 83.0554 65.264 83.7873 65.4664L84.1805 65.2319C84.1805 65.2319 83.6031 65.1074 83.2589 65.1515C83.2589 65.1515 83.6216 64.9556 84.2964 65.1676L84.577 65.0415C84.577 65.0415 84.154 64.9612 84.0301 64.9451C83.9063 64.929 83.8991 64.8985 83.8991 64.8985C84.1672 64.8533 84.4427 64.884 84.6944 64.9869C84.6944 64.9869 85.292 64.7684 85.2823 64.7306Z" fill="#2670FA"/>
<path opacity="0.1" d="M82.9401 68.131C84.269 68.131 85.3463 67.949 85.3463 67.7246C85.3463 67.5001 84.269 67.3181 82.9401 67.3181C81.6111 67.3181 80.5338 67.5001 80.5338 67.7246C80.5338 67.949 81.6111 68.131 82.9401 68.131Z" fill="#2670FA"/>
<path opacity="0.1" d="M66.0593 66.9495C70.5898 66.9495 74.2624 66.6172 74.2624 66.2073C74.2624 65.7974 70.5898 65.4651 66.0593 65.4651C61.5289 65.4651 57.8562 65.7974 57.8562 66.2073C57.8562 66.6172 61.5289 66.9495 66.0593 66.9495Z" fill="#2670FA"/>
<path d="M86.8655 56.8741C86.8655 56.8741 84.949 56.7584 85.1766 58.1006C85.1649 58.1686 85.175 58.2385 85.2055 58.3004C85.2359 58.3623 85.2852 58.413 85.3463 58.4452C85.3463 58.4452 85.3503 58.3456 85.5433 58.3793C85.6122 58.3907 85.6821 58.3939 85.7516 58.389C85.8455 58.3829 85.9348 58.3462 86.0058 58.2846C86.0058 58.2846 86.5446 58.0621 86.7545 57.1825C86.7545 57.1825 86.9097 56.9905 86.9033 56.9415L86.5816 57.0789C86.5816 57.0789 86.6918 57.3126 86.6049 57.5062C86.6049 57.5062 86.5945 57.0877 86.5325 57.0974C86.5197 57.0974 86.3644 57.1777 86.3644 57.1777C86.3644 57.1777 86.5542 57.5793 86.4111 57.8789C86.4111 57.8789 86.4658 57.3785 86.3049 57.2066L86.0773 57.3399C86.0773 57.3399 86.2993 57.7592 86.1489 58.1014C86.1489 58.1014 86.1875 57.5761 86.0291 57.3721L85.8232 57.5327C85.8232 57.5327 86.0315 57.9464 85.9036 58.2299C85.9036 58.2299 85.8867 57.6187 85.7774 57.5729C85.6993 57.639 85.6293 57.7143 85.5691 57.797C85.5691 57.797 85.7122 58.0974 85.6238 58.2556C85.6238 58.2556 85.5691 57.8484 85.5248 57.8468C85.5248 57.8468 85.3447 58.1159 85.3262 58.3006C85.3349 58.1292 85.3884 57.963 85.4814 57.8187C85.3774 57.8382 85.2815 57.888 85.2056 57.9616C85.2056 57.9616 85.2337 57.7705 85.5273 57.7544C85.5273 57.7544 85.676 57.5496 85.7154 57.5367C85.7154 57.5367 85.4251 57.5126 85.249 57.5905C85.249 57.5905 85.4042 57.4106 85.7685 57.4926L85.9728 57.3263C85.9728 57.3263 85.59 57.2741 85.4283 57.3319C85.4283 57.3319 85.6149 57.1713 86.0275 57.2885L86.2494 57.156C86.0787 57.1187 85.9037 57.1038 85.7291 57.1118C85.7291 57.1118 85.9342 57.001 86.3138 57.1206L86.4746 57.05C86.4746 57.05 86.2334 57.0026 86.1658 56.9953C86.0983 56.9881 86.0918 56.9688 86.0918 56.9688C86.2431 56.9437 86.3985 56.9609 86.5406 57.0186C86.5406 57.0186 86.8719 56.8949 86.8655 56.8741Z" fill="#2670FA"/>
<path opacity="0.1" d="M85.5469 58.791C86.2962 58.791 86.9037 58.6885 86.9037 58.5621C86.9037 58.4357 86.2962 58.3332 85.5469 58.3332C84.7976 58.3332 84.1902 58.4357 84.1902 58.5621C84.1902 58.6885 84.7976 58.791 85.5469 58.791Z" fill="#2670FA"/>
<path d="M75.5517 58.0388C75.5517 58.0388 73.2372 57.899 73.5106 59.5192C73.4964 59.6013 73.5086 59.6858 73.5454 59.7605C73.5823 59.8353 73.6419 59.8964 73.7157 59.9353C73.7157 59.9353 73.7157 59.8148 73.957 59.8549C74.0401 59.869 74.1246 59.873 74.2087 59.867C74.3222 59.8594 74.4302 59.8148 74.5159 59.7401C74.5159 59.7401 75.1665 59.4718 75.4198 58.4099C75.4198 58.4099 75.6072 58.1786 75.5992 58.1183L75.2043 58.2854C75.2043 58.2854 75.3378 58.5665 75.2325 58.8003C75.2325 58.8003 75.2196 58.2958 75.1448 58.3071C75.1295 58.3071 74.9421 58.4051 74.9421 58.4051C74.9421 58.4051 75.1713 58.8951 74.9984 59.2517C74.9984 59.2517 75.0644 58.6477 74.8706 58.4404L74.5955 58.6011C74.5955 58.6011 74.8633 59.1079 74.6816 59.5208C74.6816 59.5208 74.7282 58.887 74.5376 58.6372L74.2883 58.8316C74.2883 58.8316 74.5408 59.3304 74.3864 59.6734C74.3864 59.6734 74.3671 58.9352 74.2344 58.8798C74.2344 58.8798 74.0165 59.0718 73.9835 59.1505C73.9835 59.1505 74.1556 59.5127 74.0486 59.7039C74.0486 59.7039 73.9827 59.2123 73.9288 59.2099C73.9288 59.2099 73.7125 59.536 73.6875 59.7585C73.6984 59.5522 73.763 59.3523 73.8749 59.1786C73.7497 59.2025 73.6342 59.2625 73.5428 59.3513C73.5428 59.3513 73.5766 59.1208 73.9288 59.1007C73.9288 59.1007 74.1081 58.8533 74.1564 58.8388C74.1564 58.8388 73.8058 58.8091 73.5934 58.9031C73.5934 58.9031 73.78 58.6862 74.2199 58.785L74.466 58.5842C74.466 58.5842 74.0052 58.5215 73.809 58.5906C73.809 58.5906 74.0342 58.3986 74.5328 58.5392L74.8006 58.3786C74.8006 58.3786 74.4073 58.2942 74.1725 58.3247C74.1725 58.3247 74.4202 58.1914 74.8786 58.336L75.07 58.25C75.07 58.25 74.7821 58.1938 74.6976 58.185C74.6132 58.1761 74.6092 58.1529 74.6092 58.1529C74.7916 58.122 74.9791 58.1426 75.1504 58.2123C75.1504 58.2123 75.559 58.0637 75.5517 58.0388Z" fill="#2670FA"/>
<path opacity="0.1" d="M73.9578 60.3531C74.8626 60.3531 75.596 60.2294 75.596 60.0768C75.596 59.9242 74.8626 59.8004 73.9578 59.8004C73.053 59.8004 72.3196 59.9242 72.3196 60.0768C72.3196 60.2294 73.053 60.3531 73.9578 60.3531Z" fill="#2670FA"/>
<path opacity="0.1" d="M5.01074 66.9196C6.33967 66.9196 7.41698 66.7377 7.41698 66.5132C7.41698 66.2887 6.33967 66.1068 5.01074 66.1068C3.6818 66.1068 2.60449 66.2887 2.60449 66.5132C2.60449 66.7377 3.6818 66.9196 5.01074 66.9196Z" fill="#2670FA"/>
<path d="M3.39502 64.6247C3.39502 64.6247 4.76703 64.583 5.18121 64.289C5.59538 63.995 7.2923 63.6464 7.39524 64.1147C7.49818 64.583 9.45808 66.4618 7.90834 66.4746C6.35859 66.4875 4.30782 66.2336 3.89444 65.9822C3.48107 65.7308 3.39502 64.6247 3.39502 64.6247Z" fill="#A8A8A8"/>
<path opacity="0.2" d="M7.93546 66.3096C6.38571 66.3225 4.33494 66.0687 3.92156 65.8173C3.60792 65.6261 3.48246 64.9393 3.43903 64.6228H3.39319C3.39319 64.6228 3.48004 65.7289 3.89261 65.9803C4.30518 66.2317 6.36239 66.4864 7.90811 66.4783C8.35526 66.4743 8.50968 66.3177 8.50163 66.0767C8.4389 66.2181 8.26841 66.3072 7.93546 66.3096Z" fill="black"/>
<path d="M68.3699 0.72736L64.1261 13.7646L87.4852 21.3497L91.729 8.31245L68.3699 0.72736Z" fill="url(#paint6_linear)"/>
<path d="M68.5017 0.870095L64.3164 13.7278L87.3528 21.2081L91.5381 8.35038L68.5017 0.870095Z" fill="#F6F7F9"/>
<g opacity="0.2">
<path opacity="0.2" d="M70.9805 10.5053C72.3734 10.5053 73.5026 9.37748 73.5026 7.98629C73.5026 6.5951 72.3734 5.46732 70.9805 5.46732C69.5877 5.46732 68.4585 6.5951 68.4585 7.98629C68.4585 9.37748 69.5877 10.5053 70.9805 10.5053Z" fill="#2670FA"/>
</g>
<g opacity="0.2">
<path opacity="0.2" d="M77.2282 6.87672L77.0146 7.5329L87.4644 10.9261L87.678 10.2699L77.2282 6.87672Z" fill="#2670FA"/>
</g>
<g opacity="0.2">
<path opacity="0.2" d="M76.6836 8.54986L76.47 9.20604L81.7931 10.9346L82.0067 10.2784L76.6836 8.54986Z" fill="#2670FA"/>
</g>
<g opacity="0.2">
<path opacity="0.2" d="M76.1382 10.2238L75.9246 10.8799L84.5341 13.6756L84.7477 13.0194L76.1382 10.2238Z" fill="#2670FA"/>
</g>
<g opacity="0.2">
<path opacity="0.2" d="M75.5935 11.897L75.3799 12.5532L85.8296 15.9464L86.0432 15.2902L75.5935 11.897Z" fill="#2670FA"/>
</g>
<g opacity="0.5">
<path opacity="0.5" d="M82.3653 16.7677L81.9523 18.0365L84.844 18.9755L85.257 17.7067L82.3653 16.7677Z" fill="#2670FA"/>
</g>
<path d="M75.808 39.521C75.8068 39.4941 75.8041 39.4673 75.7999 39.4407C75.7999 39.4126 75.7911 39.3845 75.7863 39.3604C75.7758 39.3057 75.7645 39.2519 75.7517 39.1997C75.7452 39.1748 75.7388 39.1491 75.7316 39.125C75.6554 38.8401 75.5182 38.5751 75.3295 38.3483C75.319 38.3354 75.3077 38.3234 75.2973 38.3113C75.2868 38.2993 75.2539 38.2647 75.2321 38.243C75.2104 38.2214 75.1903 38.2021 75.1694 38.1836C75.1485 38.1651 75.1292 38.1483 75.1099 38.1322C75.0713 38.1009 75.0351 38.0744 75.0037 38.0519C74.9724 38.0294 74.9579 38.0213 74.9386 38.0101C74.8925 37.9826 74.8408 37.9659 74.7874 37.9611L74.4536 37.9282L73.9977 37.8832L72.3675 37.251L72.3032 37.2735C72.2554 37.142 72.2151 37.008 72.1825 36.8719C72.2319 36.8506 72.2759 36.8185 72.3112 36.7779C72.3496 36.7481 72.38 36.7092 72.3997 36.6647C72.4407 36.5699 72.3619 36.3683 72.3779 36.2526C72.4037 36.0671 72.5002 35.8879 72.579 35.7201C72.7463 35.3594 72.8685 34.9682 72.8484 34.5722C72.8283 34.1762 72.6474 33.7746 72.3128 33.5537C72.1399 33.4388 71.9364 33.3778 71.7563 33.2734C71.6163 33.193 71.4933 33.0854 71.3598 32.9938C71.0315 32.7752 70.6519 32.6455 70.2583 32.6173C69.8647 32.5892 69.4706 32.6635 69.1144 32.8332C68.7758 32.9995 68.4871 33.2485 68.1678 33.4485C67.8485 33.6485 67.4722 33.8019 67.0982 33.7425C67.093 33.7576 67.0893 33.7732 67.0869 33.7891L67.0556 33.785C66.9912 33.9601 67.1489 34.1336 67.2968 34.2533C67.5727 34.4806 67.8855 34.7072 68.245 34.7152C68.3842 34.7152 68.5313 34.6887 68.6576 34.7457C68.6863 34.7584 68.7133 34.7746 68.738 34.7939C68.658 35.1142 68.6682 35.4504 68.7676 35.7652C68.8669 36.0801 69.0515 36.3613 69.301 36.5779L68.4686 36.2791C68.4686 36.2791 68.434 36.2968 68.3801 36.3305L67.2253 35.5626C67.2253 35.5626 64.9099 34.724 64.2665 36.0301C63.6231 37.3362 67.0548 36.6623 67.0548 36.6623L67.789 37.0639C67.7643 37.2155 67.7927 37.3709 67.8695 37.5041L69.8712 38.7394C69.4691 38.864 68.8024 39.0607 68.6841 39.0607C68.5128 39.0607 68.0408 39.2294 67.7408 39.9034C67.4408 40.5773 66.368 43.8649 65.4246 44.4128C64.4813 44.9606 61.9938 48.6274 61.9938 48.6274L62.005 48.6563C61.9608 48.6683 61.9174 48.6804 61.8748 48.6949C61.3524 48.876 60.9003 49.2165 60.5824 49.6684C60.5402 49.7269 60.5141 49.7954 60.5067 49.8671C60.4993 49.9388 60.5108 50.0112 60.5401 50.077C60.5694 50.1429 60.6154 50.2 60.6736 50.2426C60.7318 50.2852 60.8002 50.3118 60.8719 50.3198C61.8538 50.4443 62.3903 49.9921 62.6484 49.6507C62.6653 49.629 62.6806 49.6073 62.6951 49.5857C62.7715 49.6185 62.8572 49.6225 62.9363 49.5969L64.137 48.6274C64.137 48.6274 63.1977 49.5511 63.7486 50.3945L63.7068 50.4532C62.7782 51.7773 62.0971 53.2582 61.6962 54.8244C61.6962 54.8244 61.1815 55.2035 61.1389 56.7209C61.0963 58.2382 60.5808 60.6825 60.5808 60.6825C60.5808 60.6825 60.2382 63.591 60.4521 64.4754C60.4521 64.4754 60.477 64.5107 60.5229 64.5645C60.5068 64.5838 60.4891 64.6047 60.4698 64.6256C60.2824 64.828 59.9446 65.1075 59.5514 65.0272C58.9514 64.9003 58.9514 65.9542 59.8087 66.0385C60.3612 66.0923 61.4469 66.3389 62.1506 66.5076C62.2273 66.5269 62.3075 66.5275 62.3844 66.5094C62.4613 66.4912 62.5328 66.4549 62.5927 66.4034C62.6527 66.3519 62.6993 66.2867 62.7287 66.2134C62.7582 66.1401 62.7695 66.0609 62.7618 65.9823C62.72 65.6048 62.6436 65.1477 62.5045 64.8224C62.4956 64.8023 62.4868 64.7822 62.4779 64.7638C62.5029 64.7397 62.5286 64.7156 62.5535 64.6899C62.5535 64.6899 62.5535 62.8352 62.8543 62.3299C62.8543 62.3299 63.669 58.4944 63.6256 57.5249C63.5926 56.7667 65.7399 53.8131 66.6744 52.5657L66.6663 52.5183C66.9076 52.197 67.0572 52.0042 67.0572 52.0042L67.7802 56.5988C67.7802 56.5988 68.1236 57.6101 68.5522 58.1579C68.5522 58.1579 70.3963 61.656 70.6111 62.7516C70.7719 63.583 71.1081 64.0738 71.2609 64.2633L71.2054 64.3163C71.01 64.4955 70.7228 64.6746 70.3963 64.6063C69.7964 64.4794 69.7964 65.5333 70.6537 65.6176C71.2062 65.6722 72.2919 65.9188 72.9948 66.0875C73.0716 66.1068 73.1518 66.1074 73.2289 66.0892C73.3059 66.071 73.3775 66.0346 73.4375 65.983C73.4975 65.9314 73.5442 65.8662 73.5736 65.7928C73.6031 65.7195 73.6145 65.6401 73.6068 65.5614C73.5577 65.1228 73.462 64.5774 73.2771 64.2553C73.2621 64.2277 73.2457 64.2009 73.228 64.175C73.2934 64.1489 73.3518 64.1079 73.3985 64.0553C73.3985 64.0553 72.283 61.3998 72.283 60.6817C72.283 60.6817 71.8118 57.9426 70.225 56.9313C70.225 56.9313 70.3746 53.5047 70.8266 51.5978C70.8379 51.5512 70.8491 51.5046 70.8604 51.4596C71.2816 51.3939 71.6992 51.307 72.1117 51.1994L72.1544 49.9351L72.3691 50.9463L74.7705 49.4716C74.7705 49.4716 74.7496 49.2057 74.7094 48.7985C74.6885 48.5945 74.6636 48.3551 74.6338 48.0956C74.6097 47.8884 74.5823 47.6683 74.5534 47.4434C74.5453 47.3872 74.5381 47.3301 74.5301 47.2739C74.4987 47.0466 74.4641 46.8169 74.4271 46.592C74.4126 46.5074 74.3982 46.4238 74.3837 46.3413C74.3636 46.2313 74.3435 46.1237 74.3226 46.0201C74.3121 45.9678 74.3008 45.9156 74.2904 45.865C74.2799 45.8144 74.2679 45.7638 74.2566 45.7148C74.2454 45.6658 74.2341 45.6184 74.2228 45.571C74.2164 45.5477 74.2108 45.5244 74.2051 45.502C74.1931 45.4562 74.181 45.4112 74.169 45.3678C74.1186 45.1876 74.0895 45.0021 74.0821 44.8152C74.0821 44.7413 74.0821 44.6666 74.0821 44.5927C74.0821 44.5188 74.0934 44.4449 74.1038 44.371C74.1086 44.3348 74.1151 44.2979 74.1223 44.2617C74.1496 44.1148 74.1902 43.9707 74.2437 43.8312C74.2703 43.7613 74.3008 43.6922 74.3338 43.624C74.4142 43.4633 74.4947 43.2922 74.5799 43.1099C74.6233 43.0191 74.6668 42.926 74.7102 42.8312C74.7536 42.7364 74.7979 42.64 74.8421 42.542C75.2595 41.6127 75.6712 40.5773 75.7814 39.8969C75.7927 39.8254 75.8015 39.758 75.8056 39.6945C75.8102 39.6368 75.8111 39.5788 75.808 39.521Z" fill="url(#paint7_linear)"/>
<path d="M68.6452 36.9996L67.2306 36.0445C67.2306 36.0445 64.9844 35.2132 64.3603 36.5016C63.7362 37.79 67.0641 37.1249 67.0641 37.1249L68.4787 37.9137L68.6452 36.9996Z" fill="#AE6E79"/>
<path d="M60.614 33.5558L53.2972 44.9236L71.0156 56.3L78.3323 44.9323L60.614 33.5558Z" fill="#F9FAFB"/>
<path d="M57.9758 40.9036L55.9229 44.1307L56.6831 44.6132L58.736 41.386L57.9758 40.9036Z" fill="#B7B6CC"/>
<path d="M62.8616 37.6971L58.353 44.7847L59.0502 45.2271L63.5587 38.1395L62.8616 37.6971Z" fill="#B7B6CC"/>
<path d="M64.3508 38.6411L59.8422 45.7287L60.5393 46.1711L65.0479 39.0835L64.3508 38.6411Z" fill="#B7B6CC"/>
<path d="M65.8396 39.5868L61.3309 46.6743L62.0281 47.1167L66.5367 40.0292L65.8396 39.5868Z" fill="#B7B6CC"/>
<path d="M67.4117 40.9913L62.8717 48.0449L63.5655 48.4903L68.1055 41.4368L67.4117 40.9913Z" fill="#B7B6CC"/>
<path d="M68.8173 41.4764L64.3087 48.564L65.0058 49.0064L69.5145 41.9188L68.8173 41.4764Z" fill="white"/>
<path d="M70.3067 42.4207L65.7981 49.5083L66.4952 49.9507L71.0038 42.8631L70.3067 42.4207Z" fill="white"/>
<path d="M73.2179 43.6468L72.0504 45.4821L73.8879 46.6482L75.0554 44.8129L73.2179 43.6468Z" fill="#B7B6CC"/>
<path d="M72.8294 66.1283C72.1466 65.962 71.0939 65.7194 70.5583 65.6656C69.7259 65.5853 69.7259 64.5411 70.309 64.668C70.6242 64.7363 70.9041 64.5587 71.0931 64.3828C71.1505 64.3277 71.2042 64.269 71.2539 64.2069C71.3227 64.1234 71.4176 64.0654 71.5233 64.0423C71.8354 63.9748 72.4884 63.872 72.8833 64.0864C72.9756 64.1437 73.0502 64.2255 73.0988 64.3226C73.2782 64.6439 73.3715 65.178 73.4205 65.6078C73.4288 65.6844 73.4185 65.762 73.3905 65.8338C73.3626 65.9057 73.3178 65.9698 73.2599 66.0208C73.2019 66.0718 73.1326 66.1082 73.0577 66.1269C72.9828 66.1456 72.9045 66.1461 72.8294 66.1283Z" fill="#BEBED0"/>
<path d="M62.3045 66.5434C61.6226 66.3771 60.5698 66.1345 60.0342 66.0807C59.2018 66.0004 59.2019 64.9562 59.7841 65.0839C60.1653 65.1642 60.4934 64.8903 60.6744 64.6911C60.6969 64.667 60.717 64.6437 60.7339 64.622C60.8031 64.5401 60.8976 64.4836 61.0025 64.4614C61.3145 64.3931 61.9676 64.2903 62.3633 64.5055C62.4807 64.5682 62.574 64.7064 62.6488 64.8855C62.7831 65.2068 62.857 65.6566 62.8981 66.0285C62.9055 66.105 62.8945 66.1821 62.866 66.2535C62.8374 66.3248 62.7923 66.3884 62.7342 66.4388C62.6761 66.4891 62.6068 66.5249 62.5321 66.5431C62.4573 66.5613 62.3793 66.5614 62.3045 66.5434Z" fill="#BEBED0"/>
<path opacity="0.1" d="M62.6486 64.8823C61.6554 65.9048 60.8037 64.863 60.6742 64.6911C60.6967 64.667 60.7168 64.6437 60.7337 64.622C60.8029 64.5401 60.8974 64.4836 61.0023 64.4614C61.3144 64.3931 61.9674 64.2903 62.3631 64.5055C62.4805 64.565 62.5778 64.7031 62.6486 64.8823Z" fill="black"/>
<path opacity="0.1" d="M73.1029 64.3226C72.6726 64.6158 71.2242 64.5435 71.2242 64.5435C71.1765 64.4934 71.1327 64.4396 71.0931 64.3828C71.1505 64.3277 71.2042 64.269 71.254 64.2069C71.3228 64.1234 71.4176 64.0654 71.5234 64.0423C71.8354 63.9748 72.4885 63.872 72.8833 64.0864C72.9772 64.1432 73.0532 64.225 73.1029 64.3226Z" fill="black"/>
<path d="M73.1792 64.1282C72.8873 64.5025 71.2242 64.419 71.2242 64.419C71.2242 64.419 70.7247 63.9202 70.5165 62.8406C70.3082 61.7611 68.5196 58.3119 68.5196 58.3119C68.1038 57.7714 67.7708 56.7745 67.7708 56.7745L67.0639 52.2458C67.0639 52.2458 63.6532 56.7328 63.695 57.6886C63.7368 58.6445 62.9455 62.4278 62.9455 62.4278C62.6543 62.9266 62.6543 64.7572 62.6543 64.7572C61.5735 65.8817 60.6583 64.5491 60.6583 64.5491C60.45 63.6768 60.7829 60.81 60.7829 60.81C60.7829 60.81 61.2823 58.4003 61.3234 56.9047C61.3644 55.409 61.8646 55.0355 61.8646 55.0355C62.2531 53.4939 62.9147 52.0341 63.8181 50.7253C64.069 50.3663 64.2354 50.1743 64.2354 50.1743L70.9741 50.9639C70.8448 51.2495 70.7477 51.5485 70.6845 51.8555C70.2462 53.7351 70.1007 57.1127 70.1007 57.1127C71.64 58.1095 72.0976 60.8076 72.0976 60.8076C72.0976 61.5105 73.1792 64.1282 73.1792 64.1282Z" fill="#5C5C8E"/>
<g opacity="0.05">
<path opacity="0.05" d="M66.6929 52.7995L66.6061 52.246C66.6061 52.246 63.1954 56.733 63.2372 57.6888C63.279 58.6447 62.4885 62.428 62.4885 62.428C62.1965 62.9268 62.1965 64.7574 62.1965 64.7574C62.0224 64.9537 61.7972 65.098 61.5459 65.1743C61.8732 65.2602 62.2697 65.1968 62.6959 64.7574C62.6959 64.7574 62.6959 62.9292 62.9871 62.428C62.9871 62.428 63.7776 58.6471 63.7358 57.6888C63.7036 56.941 65.7858 54.0284 66.6929 52.7995Z" fill="black"/>
<path opacity="0.05" d="M72.1386 60.8046C72.1386 60.8046 71.681 58.1041 70.1426 57.1097C70.1426 57.1097 70.2881 53.732 70.7256 51.8524C70.789 51.5454 70.8864 51.2464 71.0159 50.9608L64.2773 50.1729C64.2773 50.1729 64.2613 50.1905 64.2323 50.2259L70.5165 50.9624C70.3873 51.248 70.2902 51.5471 70.227 51.854C69.7887 53.7336 69.6431 57.1113 69.6431 57.1113C71.1824 58.1081 71.64 60.8062 71.64 60.8062C71.64 61.5123 72.7217 64.13 72.7217 64.13C72.5496 64.3501 71.9014 64.412 71.3971 64.4256C71.7993 64.4361 72.9791 64.4401 73.2203 64.13C73.2203 64.1284 72.1386 61.5106 72.1386 60.8046Z" fill="black"/>
</g>
<path d="M62.9872 49.5873C62.9369 49.71 62.8706 49.8256 62.7902 49.9311C62.5401 50.2676 62.0197 50.7126 61.0675 50.5905C60.9974 50.5815 60.9307 50.5546 60.8741 50.5122C60.8175 50.4699 60.7729 50.4136 60.7445 50.3489C60.7162 50.2842 60.7051 50.2132 60.7124 50.1429C60.7197 50.0727 60.745 50.0055 60.786 49.9479C61.0917 49.5026 61.5306 49.1652 62.0398 48.984C62.2121 48.9272 62.3906 48.8911 62.5714 48.8764L62.9872 49.5873Z" fill="#AE6E79"/>
<path d="M71.7729 37.9675L68.437 36.749C68.437 36.749 67.48 37.2478 67.8547 37.9539L71.103 39.9901L71.7729 37.9675Z" fill="#42383C"/>
<path opacity="0.1" d="M71.7856 37.9812L68.4488 36.7627C68.4488 36.7627 67.4918 37.2607 67.8666 37.9675L71.1108 40.0029L71.7856 37.9812Z" fill="black"/>
<path d="M71.8894 35.9594C71.8894 35.9594 71.8476 37.9121 72.7218 38.5771C73.596 39.2422 70.1836 39.6157 70.1836 39.6157C70.1836 39.6157 70.7249 37.6213 70.1836 36.5827C69.6424 35.5441 71.8894 35.9594 71.8894 35.9594Z" fill="#AE6E79"/>
<path opacity="0.1" d="M70.9742 50.9582C70.845 51.2438 70.7479 51.5428 70.6847 51.8498C66.6636 52.4634 63.8609 50.7919 63.8609 50.7919C63.8456 50.7678 63.8311 50.7437 63.8182 50.7196C64.0692 50.3606 64.2356 50.1686 64.2356 50.1686L70.9742 50.9582Z" fill="black"/>
<path opacity="0.1" d="M62.9871 49.5871C62.9367 49.7098 62.8705 49.8254 62.79 49.9309C62.4048 49.8667 62.0968 49.1277 62.0397 48.9879C62.212 48.9311 62.3904 48.895 62.5713 48.8803L62.9871 49.5871Z" fill="black"/>
<path d="M72.2221 37.7049L70.7247 38.2446L70.1006 39.076C70.1006 39.076 68.8138 39.4913 68.6449 39.4913C68.476 39.4913 68.0209 39.6575 67.7297 40.3218C67.4386 40.9861 66.3987 44.2288 65.4835 44.7678C64.5683 45.3068 62.1556 48.9222 62.1556 48.9222C62.1556 48.9222 62.5714 50.0467 63.0708 49.878L64.2354 48.9222C64.2354 48.9222 63.3202 49.8363 63.8606 50.6676C63.8606 50.6676 67.2721 52.703 71.9728 51.4564L72.0138 50.2106L72.2221 51.2074L74.5544 49.7535C74.5544 49.7535 74.3461 47.0715 73.9705 45.7068C73.8149 45.1329 73.8721 44.5222 74.1314 43.987C74.7353 42.73 75.6674 40.6303 75.554 39.8648C75.4197 38.9627 74.9107 38.5708 74.7144 38.4527C74.6699 38.4256 74.6199 38.4089 74.5681 38.4037L73.8065 38.3282L72.2221 37.7049Z" fill="#42383C"/>
<path opacity="0.05" d="M69.6641 41.8799C69.6641 41.8799 68.8318 45.7435 67.9165 46.3669C67.0013 46.9902 64.5476 48.9846 64.464 49.3172" fill="black"/>
<path d="M69.2892 41.7554C69.2892 41.7554 68.4576 45.619 67.5424 46.2423C66.6272 46.8656 64.1727 48.8601 64.0898 49.1918" fill="#42383C"/>
<path opacity="0.1" d="M70.0797 39.0552C70.0797 39.0552 72.95 38.0993 73.7792 38.3483L70.0797 39.0552Z" fill="black"/>
<g opacity="0.05">
<path opacity="0.05" d="M74.1277 43.9878C74.7316 42.7307 75.6637 40.631 75.5503 39.8655C75.416 38.9635 74.9069 38.5715 74.7107 38.4534C74.6662 38.4263 74.6162 38.4096 74.5643 38.4044L74.2427 38.3723C74.2768 38.3801 74.3094 38.3934 74.3392 38.4116C74.5338 38.5305 75.0445 38.9217 75.178 39.8245C75.2914 40.5892 74.3593 42.6897 73.7561 43.9468C73.4969 44.4817 73.4397 45.0921 73.5953 45.6657C73.9716 47.0312 74.1799 49.7125 74.1799 49.7125L72.1742 50.9647L72.2249 51.2057L74.5571 49.7518C74.5571 49.7518 74.3488 47.0698 73.9732 45.7051C73.8163 45.1327 73.8711 44.523 74.1277 43.9878Z" fill="black"/>
<path opacity="0.05" d="M73.4287 38.2864L73.789 38.3226L72.2224 37.7049L72.0817 37.7555L73.4287 38.2864Z" fill="black"/>
</g>
<path opacity="0.05" d="M69.2892 45.7854C69.2892 45.7854 70.5759 45.0794 70.9949 45.2456C71.4139 45.4119 72.95 45.2039 72.95 45.2039" fill="black"/>
<path opacity="0.05" d="M71.7459 36.4792C71.6985 36.0624 71.8915 36.1258 71.8915 36.1258C71.8915 36.1258 69.6453 35.7105 70.1857 36.7491C70.322 37.0353 70.3997 37.3458 70.4141 37.6624H70.4359C71.0599 37.6632 71.4242 36.966 71.7459 36.4792Z" fill="black"/>
<path d="M70.4334 37.4969C71.4212 37.4969 72.222 36.6971 72.222 35.7105C72.222 34.7239 71.4212 33.9241 70.4334 33.9241C69.4456 33.9241 68.6448 34.7239 68.6448 35.7105C68.6448 36.6971 69.4456 37.4969 70.4334 37.4969Z" fill="#AE6E79"/>
<path opacity="0.1" d="M72.3895 36.2389C72.5503 35.883 72.6701 35.4975 72.6508 35.1071C72.6315 34.7167 72.4562 34.3207 72.1313 34.1022C71.964 33.9898 71.7662 33.9295 71.5917 33.8267C71.4557 33.7464 71.3359 33.6412 71.2064 33.5512C70.8896 33.3355 70.5215 33.2071 70.1391 33.1789C69.7567 33.1507 69.3737 33.2237 69.0286 33.3906C68.7005 33.5512 68.4206 33.801 68.111 33.9978C67.8013 34.1946 67.4362 34.3456 67.0735 34.2878C67.0108 34.4605 67.1644 34.6308 67.3051 34.7496C67.5729 34.9738 67.8761 35.1971 68.2252 35.2043C68.3603 35.2043 68.5026 35.1786 68.6273 35.2348C68.7099 35.2804 68.78 35.3454 68.8316 35.4244C68.9995 35.6474 69.1419 35.8886 69.2562 36.1433C69.2911 36.2528 69.3571 36.3499 69.446 36.4228C69.6068 36.5256 69.8151 36.4397 70.0089 36.4324C70.3049 36.4204 70.5719 36.6067 70.7906 36.806C71.0094 37.0052 71.2185 37.2333 71.4952 37.3385C71.7018 37.4188 72.1152 37.414 72.219 37.1674C72.2584 37.0742 72.182 36.875 72.198 36.761C72.2368 36.5788 72.3012 36.403 72.3895 36.2389Z" fill="black"/>
<path d="M72.4265 36.1964C72.5874 35.8406 72.708 35.455 72.6879 35.0654C72.6678 34.6759 72.4941 34.2782 72.1692 34.0606C72.0011 33.9473 71.8033 33.8871 71.6295 33.7843C71.4936 33.7039 71.3738 33.5995 71.2443 33.5087C70.9275 33.2931 70.5594 33.1647 70.177 33.1365C69.7946 33.1082 69.4116 33.1812 69.0665 33.3481C68.7384 33.5087 68.4585 33.7577 68.1489 33.9545C67.8392 34.1513 67.4741 34.3032 67.1114 34.2445C67.0487 34.418 67.2015 34.5883 67.343 34.7064C67.6108 34.9305 67.914 35.1538 68.2631 35.1618C68.3982 35.1618 68.5405 35.1353 68.6652 35.1923C68.7481 35.2374 68.8183 35.3026 68.8694 35.3819C69.0374 35.6045 69.1796 35.8454 69.2933 36.1C69.3285 36.2096 69.3947 36.3066 69.4839 36.3795C69.6447 36.4824 69.853 36.3964 70.0468 36.3892C70.3428 36.3779 70.6098 36.5643 70.8277 36.7635C71.0457 36.9627 71.2556 37.19 71.533 37.2952C71.7397 37.3756 72.1531 37.3707 72.2568 37.1241C72.2971 37.031 72.2207 36.8318 72.2367 36.7177C72.275 36.5358 72.3389 36.3603 72.4265 36.1964Z" fill="#42383C"/>
<path opacity="0.1" d="M59.4785 62.5772C59.3285 62.7002 59.1402 62.7667 58.9461 62.7652L23.0157 62.6126C22.9193 62.4966 22.8476 62.3622 22.8052 62.2176C22.7627 62.073 22.7503 61.9212 22.7688 61.7716L26.3187 32.7608L28.5448 32.7367C28.7309 32.7349 28.9125 32.7947 29.0609 32.9069C29.2093 33.0191 29.3163 33.1774 29.3651 33.3568L29.7809 34.8894C29.8301 35.0708 29.9388 35.2304 30.0895 35.3428C30.2402 35.4552 30.4244 35.5139 30.6124 35.5095L39.4967 35.2967C39.7163 35.2914 39.9252 35.2006 40.0786 35.0436C40.232 34.8866 40.3179 34.6759 40.3178 34.4565V33.4412C40.3178 33.22 40.4051 33.0077 40.5608 32.8504C40.7165 32.6931 40.928 32.6035 41.1494 32.601L53.4605 32.4684C53.6575 32.4666 53.8488 32.5339 54.0012 32.6585C54.1536 32.7831 54.2574 32.9572 54.2945 33.1504L59.7391 61.5852L59.7745 61.7684C59.8033 61.9173 59.791 62.0713 59.7389 62.2138C59.6868 62.3563 59.5968 62.482 59.4785 62.5772Z" fill="black"/>
<path d="M53.0585 32.8709L40.7474 33.0034C40.5259 33.0058 40.3144 33.0952 40.1585 33.2523C40.0027 33.4095 39.9152 33.6216 39.915 33.8428V34.8589C39.9148 35.078 39.829 35.2884 39.6758 35.4452C39.5225 35.6021 39.314 35.6929 39.0947 35.6983L30.2112 35.9112C30.023 35.9159 29.8386 35.8573 29.6876 35.7449C29.5367 35.6324 29.428 35.4726 29.3788 35.2911L28.9614 33.7593C28.9128 33.5796 28.8057 33.4212 28.6571 33.309C28.5084 33.1967 28.3266 33.137 28.1403 33.1392L16.274 33.2669C16.1524 33.2681 16.0325 33.2956 15.9226 33.3476C15.8127 33.3995 15.7154 33.4747 15.6374 33.5678C15.5594 33.661 15.5026 33.77 15.4709 33.8872C15.4392 34.0044 15.4333 34.1271 15.4536 34.2468L20.2275 62.309C20.2607 62.5041 20.3617 62.6812 20.5128 62.8092C20.6639 62.9372 20.8554 63.0078 21.0535 63.0086L58.5417 63.1693C58.6657 63.1697 58.7884 63.1427 58.9007 63.0902C59.0131 63.0377 59.1125 62.9611 59.1918 62.8657C59.271 62.7704 59.3282 62.6587 59.3591 62.5387C59.3901 62.4187 59.3941 62.2934 59.3708 62.1716L53.8924 33.5528C53.8555 33.3596 53.7517 33.1854 53.5993 33.0608C53.4469 32.9361 53.2554 32.8689 53.0585 32.8709Z" fill="white"/>
<path d="M70.3965 13.6541L70.3321 14.369L70.3788 15.6333L70.2429 17.7659C70.2429 17.7659 70.2236 18.7001 69.6952 19.1379L68.3465 21.2062L68.3385 21.2102L67.831 21.4576L67.0565 21.538L66.6544 20.5652L66.9206 19.4969L67.0686 19.2977L67.1096 19.2527C67.2705 19.076 67.8913 18.4342 68.3843 18.2342C68.3843 18.2342 68.7132 17.9932 68.6553 17.6157C68.5974 17.2382 69.0993 15.2317 69.0993 15.2317C69.0993 15.2317 69.4209 13.9047 69.351 13.7754C69.281 13.6461 69.3381 10.7086 70.4479 10.6636C71.5578 10.6187 70.3965 13.6541 70.3965 13.6541Z" fill="#F6BAC2"/>
<path opacity="0.1" d="M12.794 57.2045C13.514 57.2045 14.0977 57.1243 14.0977 57.0254C14.0977 56.9265 13.514 56.8463 12.794 56.8463C12.074 56.8463 11.4904 56.9265 11.4904 57.0254C11.4904 57.1243 12.074 57.2045 12.794 57.2045Z" fill="#2670FA"/>
<path opacity="0.1" d="M7.8006 57.7096C8.52058 57.7096 9.10425 57.6294 9.10425 57.5304C9.10425 57.4315 8.52058 57.3513 7.8006 57.3513C7.08061 57.3513 6.49695 57.4315 6.49695 57.5304C6.49695 57.6294 7.08061 57.7096 7.8006 57.7096Z" fill="#2670FA"/>
<path opacity="0.1" d="M1.91913 57.0253C2.63912 57.0253 3.22278 56.9451 3.22278 56.8462C3.22278 56.7473 2.63912 56.6671 1.91913 56.6671C1.19914 56.6671 0.615479 56.7473 0.615479 56.8462C0.615479 56.9451 1.19914 57.0253 1.91913 57.0253Z" fill="#2670FA"/>
<path opacity="0.1" d="M9.79915 59.0977C10.3108 59.0977 10.7256 59.0409 10.7256 58.9708C10.7256 58.9007 10.3108 58.8439 9.79915 58.8439C9.28747 58.8439 8.87268 58.9007 8.87268 58.9708C8.87268 59.0409 9.28747 59.0977 9.79915 59.0977Z" fill="#2670FA"/>
<path opacity="0.1" d="M4.61678 58.9709C5.12845 58.9709 5.54324 58.914 5.54324 58.844C5.54324 58.7739 5.12845 58.717 4.61678 58.717C4.1051 58.717 3.69031 58.7739 3.69031 58.844C3.69031 58.914 4.1051 58.9709 4.61678 58.9709Z" fill="#2670FA"/>
<path d="M7.77215 57.4911C7.77215 57.4911 9.60015 51.5053 7.48584 49.1076C5.90393 47.314 4.10809 47.5285 3.30387 47.7502C3.09592 47.8056 2.90251 47.9056 2.73699 48.043C2.57148 48.1804 2.43782 48.3521 2.34523 48.5462C2.06375 49.1518 2.11442 50.135 4.09925 51.2828C7.4215 53.2042 7.62819 55.8396 7.62819 55.8396L7.77215 57.4911Z" fill="#2670FA"/>
<path d="M3.59131 48.5995C3.59131 48.5995 8.97962 50.2863 7.77328 57.4914" stroke="#565987" stroke-width="0.338711" stroke-miterlimit="10"/>
<path d="M6.73875 49.2022C6.73875 49.2022 5.99645 49.7019 6.23289 50.4529" stroke="#565987" stroke-width="0.338711" stroke-miterlimit="10"/>
<path d="M4.13135 49.6475C4.13135 49.6475 4.58493 49.1864 5.13743 49.4411" stroke="#565987" stroke-width="0.338711" stroke-miterlimit="10"/>
<path d="M6.26196 51.9656C6.26196 51.9656 7.05895 51.564 7.26483 52.0677" stroke="#565987" stroke-width="0.338711" stroke-miterlimit="10"/>
<path d="M8.23356 52.8069C8.23356 52.8069 7.63521 52.7595 7.62476 53.0478" stroke="#565987" stroke-width="0.338711" stroke-miterlimit="10"/>
<path d="M7.84626 57.5383C7.84626 57.5383 5.70461 53.1879 5.11672 53.2811C4.83765 53.3269 4.70897 53.6024 4.65027 53.8771C4.57808 54.2335 4.61884 54.6036 4.76688 54.9358C5.07088 55.6346 5.88717 56.956 7.84626 57.5383Z" fill="#2670FA"/>
<path d="M5.13281 54.1087C5.13281 54.1087 7.37982 57.3634 7.8141 57.5064" stroke="#565987" stroke-width="0.338711" stroke-miterlimit="10"/>
<path d="M4.92603 54.6171H5.45038" stroke="#565987" stroke-width="0.338711" stroke-miterlimit="10"/>
<path d="M5.55432 55.8077L6.37705 55.8431" stroke="#565987" stroke-width="0.338711" stroke-miterlimit="10"/>
<path d="M6.05521 54.8548L5.96594 55.283" stroke="#565987" stroke-width="0.338711" stroke-miterlimit="10"/>
<path d="M6.92966 56.157L6.91357 56.5458" stroke="#565987" stroke-width="0.338711" stroke-miterlimit="10"/>
<path d="M7.78271 57.5383C7.78271 57.5383 9.92357 53.1879 10.5115 53.2811C10.7913 53.3269 10.92 53.6024 10.9779 53.8771C11.0501 54.2335 11.0093 54.6036 10.8613 54.9358C10.5573 55.6346 9.7402 56.956 7.78271 57.5383Z" fill="#2670FA"/>
<path d="M10.4963 54.1087C10.4963 54.1087 8.24447 57.3634 7.81421 57.5064" stroke="#565987" stroke-width="0.338711" stroke-miterlimit="10"/>
<path d="M10.7032 54.6171H10.1788" stroke="#565987" stroke-width="0.338711" stroke-miterlimit="10"/>
<path d="M10.075 55.8077L9.25232 55.8431" stroke="#565987" stroke-width="0.338711" stroke-miterlimit="10"/>
<path d="M9.57385 54.8548L9.66312 55.283" stroke="#565987" stroke-width="0.338711" stroke-miterlimit="10"/>
<path d="M8.69971 56.157L8.71579 56.5458" stroke="#565987" stroke-width="0.338711" stroke-miterlimit="10"/>
<path d="M4.10604 58.5546C4.04777 58.507 4.00541 58.4429 3.9846 58.3706C3.97466 58.3344 3.97775 58.2958 3.99332 58.2617C4.00889 58.2275 4.03597 58.1998 4.06985 58.1835C4.15027 58.1538 4.23069 58.2076 4.29503 58.2638C4.35937 58.32 4.43256 58.3795 4.51298 58.3658C4.4703 58.3272 4.43838 58.2782 4.42033 58.2236C4.40229 58.1689 4.39874 58.1106 4.41004 58.0542C4.41333 58.0308 4.42308 58.0088 4.43818 57.9907C4.48161 57.9441 4.56043 57.9642 4.6127 58.0012C4.77355 58.1168 4.82421 58.3409 4.82502 58.5433C4.83307 58.4691 4.83307 58.3942 4.82502 58.32C4.82289 58.2826 4.82999 58.2453 4.8457 58.2112C4.8614 58.1772 4.88523 58.1475 4.91509 58.1248C4.95424 58.1035 4.99838 58.093 5.04296 58.0943C5.07991 58.089 5.11757 58.0916 5.15346 58.1018C5.18935 58.1121 5.22268 58.1298 5.25126 58.1538C5.27863 58.191 5.29271 58.2363 5.29125 58.2825C5.28979 58.3286 5.27288 58.373 5.24322 58.4084C5.1816 58.4774 5.10873 58.5355 5.02768 58.5803C4.96617 58.6173 4.91369 58.6675 4.87408 58.7273C4.86922 58.7353 4.86543 58.744 4.86282 58.753H4.39476C4.28998 58.7002 4.19286 58.6334 4.10604 58.5546Z" fill="#2670FA"/>
<path d="M12.2647 56.802C12.2063 56.7549 12.1639 56.691 12.1433 56.6189C12.1333 56.5827 12.1362 56.5443 12.1517 56.5101C12.1671 56.4759 12.194 56.4482 12.2277 56.4317C12.3081 56.402 12.3886 56.4558 12.4529 56.5121C12.5172 56.5683 12.5896 56.6293 12.6724 56.6173C12.6298 56.5788 12.5978 56.53 12.5796 56.4755C12.5614 56.421 12.5577 56.3628 12.5687 56.3064C12.5723 56.283 12.5823 56.261 12.5977 56.243C12.6411 56.1964 12.7199 56.2165 12.7722 56.2526C12.937 56.3691 12.9837 56.5932 12.9845 56.7956C12.9925 56.7211 12.9925 56.646 12.9845 56.5715C12.9809 56.5345 12.9863 56.4972 13.0003 56.4628C13.0144 56.4284 13.0365 56.3979 13.0649 56.3739C13.1042 56.3531 13.1483 56.3428 13.1928 56.3442C13.2297 56.339 13.2672 56.3415 13.3031 56.3516C13.339 56.3617 13.3723 56.3791 13.4011 56.4028C13.4285 56.4402 13.4426 56.4857 13.441 56.5321C13.4394 56.5784 13.4222 56.6228 13.3922 56.6582C13.3311 56.7274 13.2584 56.7856 13.1775 56.8301C13.116 56.8668 13.0635 56.9167 13.0239 56.9763C13.0192 56.9847 13.0154 56.9936 13.0126 57.0028H12.555C12.4495 56.9495 12.3518 56.882 12.2647 56.802Z" fill="#2670FA"/>
<path d="M9.54581 58.5547C9.48758 58.5069 9.44501 58.4429 9.42357 58.3707C9.41363 58.3345 9.41671 58.296 9.43229 58.2618C9.44786 58.2276 9.47494 58.1999 9.50881 58.1836C9.58924 58.1539 9.66966 58.2077 9.734 58.2639C9.79833 58.3201 9.86991 58.3812 9.95355 58.3699C9.91092 58.3313 9.87898 58.2823 9.86081 58.2277C9.84264 58.1731 9.83885 58.1148 9.84981 58.0583C9.85338 58.0349 9.8634 58.0129 9.87876 57.9948C9.92219 57.9482 10.001 57.9683 10.0533 58.0053C10.2181 58.1209 10.264 58.345 10.2656 58.5475C10.2736 58.4732 10.2736 58.3984 10.2656 58.3242C10.2625 58.2868 10.2685 58.2493 10.2833 58.2149C10.298 58.1805 10.3209 58.1501 10.35 58.1266C10.3891 58.1051 10.4333 58.0946 10.4779 58.096C10.5149 58.0908 10.5525 58.0934 10.5884 58.1036C10.6243 58.1139 10.6576 58.1315 10.6862 58.1555C10.7136 58.1927 10.7276 58.2381 10.726 58.2843C10.7244 58.3305 10.7073 58.3748 10.6774 58.4101C10.616 58.4791 10.5434 58.5372 10.4626 58.582C10.4011 58.619 10.3486 58.6692 10.309 58.729C10.3042 58.737 10.3004 58.7457 10.2978 58.7547H9.83131C9.72765 58.701 9.63164 58.6337 9.54581 58.5547Z" fill="#2670FA"/>
<path d="M1.83397 55.0124C1.83397 55.0124 1.65945 55.2405 1.91439 55.5851C2.16933 55.9297 2.38004 56.2205 2.29479 56.4349C2.29479 56.4349 1.90957 55.7923 1.59592 55.7867C1.28227 55.7811 1.48896 55.3939 1.83397 55.0124Z" fill="#2670FA"/>
<path opacity="0.1" d="M1.834 55.0124C1.81894 55.0345 1.80703 55.0585 1.79861 55.0839C1.49301 55.4429 1.32975 55.7779 1.6241 55.7867C1.89753 55.7948 2.22646 56.2831 2.30447 56.4068C2.30201 56.4163 2.29905 56.4257 2.29562 56.4349C2.29562 56.4349 1.9104 55.7923 1.59675 55.7867C1.2831 55.7811 1.48899 55.3939 1.834 55.0124Z" fill="black"/>
<path d="M1.50989 55.3029C1.50989 55.3833 1.51873 55.4483 1.52999 55.4483C1.54125 55.4483 1.5501 55.3833 1.5501 55.3029C1.5501 55.2226 1.53884 55.2604 1.52758 55.2604C1.51632 55.2604 1.50989 55.2226 1.50989 55.3029Z" fill="#FFD037"/>
<path d="M1.39805 55.3994C1.46882 55.438 1.52994 55.4605 1.53557 55.4508C1.5412 55.4412 1.48812 55.4026 1.41735 55.3641C1.34658 55.3255 1.37473 55.3536 1.3691 55.3641C1.36347 55.3745 1.32728 55.3609 1.39805 55.3994Z" fill="#FFD037"/>
<path d="M2.75673 55.0124C2.75673 55.0124 2.93205 55.2405 2.67631 55.5851C2.42056 55.9297 2.21066 56.2205 2.29591 56.4349C2.29591 56.4349 2.68113 55.7923 2.99478 55.7867C3.30843 55.7811 3.10174 55.3939 2.75673 55.0124Z" fill="#2670FA"/>
<path opacity="0.1" d="M2.75636 55.0124C2.77152 55.0345 2.78369 55.0586 2.79255 55.0839C3.09816 55.4429 3.26142 55.7779 2.96707 55.7867C2.69363 55.7948 2.3647 56.2831 2.28589 56.4068C2.28825 56.4165 2.29148 56.4259 2.29554 56.4349C2.29554 56.4349 2.68076 55.7923 2.99441 55.7867C3.30806 55.7811 3.10137 55.3939 2.75636 55.0124Z" fill="black"/>
<path d="M3.08135 55.3029C3.08135 55.3833 3.0725 55.4483 3.06124 55.4483C3.04998 55.4483 3.04114 55.3833 3.04114 55.3029C3.04114 55.2226 3.0524 55.2604 3.06366 55.2604C3.07492 55.2604 3.08135 55.2226 3.08135 55.3029Z" fill="#FFD037"/>
<path d="M3.19313 55.3994C3.12236 55.438 3.06043 55.4605 3.05561 55.4508C3.05078 55.4412 3.10306 55.4026 3.17383 55.3641C3.2446 55.3255 3.21645 55.3536 3.22128 55.3641C3.2261 55.3745 3.2631 55.3609 3.19313 55.3994Z" fill="#FFD037"/>
<path d="M3.02565 56.4051C3.02565 56.4051 2.53748 56.3898 2.39031 56.2854C2.24314 56.181 1.63916 56.0557 1.60217 56.2236C1.56517 56.3914 0.868715 57.0589 1.41961 57.063C1.9705 57.067 2.70074 56.977 2.84792 56.8879C2.99509 56.7987 3.02565 56.4051 3.02565 56.4051Z" fill="#A8A8A8"/>
<path opacity="0.2" d="M1.41006 57.0044C1.96175 57.0092 2.69119 56.9192 2.83836 56.8292C2.95015 56.7618 2.99438 56.5176 3.00966 56.4043H3.02575C3.02575 56.4043 2.99519 56.7979 2.84801 56.8863C2.70084 56.9746 1.97141 57.0662 1.41971 57.0614C1.25886 57.0614 1.20578 57.0035 1.209 56.92C1.23071 56.9722 1.29586 57.0003 1.41006 57.0044Z" fill="black"/>
<path opacity="0.1" d="M3.34513 12.6428C4.30585 12.6428 5.08467 11.8649 5.08467 10.9054C5.08467 9.94584 4.30585 9.16797 3.34513 9.16797C2.38441 9.16797 1.60559 9.94584 1.60559 10.9054C1.60559 11.8649 2.38441 12.6428 3.34513 12.6428Z" fill="#2670FA"/>
<path opacity="0.1" d="M86.9919 26.5268C87.9526 26.5268 88.7314 25.7489 88.7314 24.7894C88.7314 23.8298 87.9526 23.052 86.9919 23.052C86.0311 23.052 85.2523 23.8298 85.2523 24.7894C85.2523 25.7489 86.0311 26.5268 86.9919 26.5268Z" fill="#2670FA"/>
<path opacity="0.1" d="M55.7217 7.12522C56.6824 7.12522 57.4612 6.34736 57.4612 5.38781C57.4612 4.42826 56.6824 3.65039 55.7217 3.65039C54.761 3.65039 53.9822 4.42826 53.9822 5.38781C53.9822 6.34736 54.761 7.12522 55.7217 7.12522Z" fill="#2670FA"/>
<path opacity="0.1" d="M6.82425 23.4023C8.43434 23.4023 9.73957 22.0987 9.73957 20.4905C9.73957 18.8824 8.43434 17.5788 6.82425 17.5788C5.21417 17.5788 3.90894 18.8824 3.90894 20.4905C3.90894 22.0987 5.21417 23.4023 6.82425 23.4023Z" fill="#2670FA"/>
<path d="M46.1062 47.2713C45.306 43.3277 41.8766 40.3566 37.7044 40.3566C34.3892 40.3566 31.5314 42.2425 30.1021 44.985C26.6727 45.3279 23.9866 48.2427 23.9866 51.7881C23.9866 55.5599 27.0725 58.647 30.8455 58.647H45.7064C48.8498 58.647 51.4221 56.0746 51.4221 52.9313C51.4282 51.4869 50.8804 50.0952 49.8916 49.0424C48.9028 47.9895 47.5481 47.3557 46.1062 47.2713ZM39.5328 50.6422V54.9861H35.8748V50.6422H31.9881L37.7038 44.9292L43.4195 50.645L39.5328 50.6422Z" fill="#2670FA"/>
</g>
<defs>
<linearGradient id="paint0_linear" x1="63.8588" y1="46.3685" x2="63.8588" y2="8.91163" gradientUnits="userSpaceOnUse">
<stop stop-color="#808080" stop-opacity="0.25"/>
<stop offset="0.54" stop-color="#808080" stop-opacity="0.12"/>
<stop offset="1" stop-color="#808080" stop-opacity="0.1"/>
</linearGradient>
<linearGradient id="paint1_linear" x1="135.494" y1="58.6894" x2="135.494" y2="58.2073" gradientUnits="userSpaceOnUse">
<stop stop-color="#808080" stop-opacity="0.25"/>
<stop offset="0.54" stop-color="#808080" stop-opacity="0.12"/>
<stop offset="1" stop-color="#808080" stop-opacity="0.1"/>
</linearGradient>
<linearGradient id="paint2_linear" x1="5925.81" y1="9231.76" x2="6889.74" y2="7834.86" gradientUnits="userSpaceOnUse">
<stop stop-color="#808080" stop-opacity="0.25"/>
<stop offset="0.54" stop-color="#808080" stop-opacity="0.12"/>
<stop offset="1" stop-color="#808080" stop-opacity="0.1"/>
</linearGradient>
<linearGradient id="paint3_linear" x1="8369.46" y1="7320.55" x2="8843.08" y2="5697.88" gradientUnits="userSpaceOnUse">
<stop stop-color="#808080" stop-opacity="0.25"/>
<stop offset="0.54" stop-color="#808080" stop-opacity="0.12"/>
<stop offset="1" stop-color="#808080" stop-opacity="0.1"/>
</linearGradient>
<linearGradient id="paint4_linear" x1="9261.97" y1="5410.12" x2="9397.36" y2="3725.33" gradientUnits="userSpaceOnUse">
<stop stop-color="#808080" stop-opacity="0.25"/>
<stop offset="0.54" stop-color="#808080" stop-opacity="0.12"/>
<stop offset="1" stop-color="#808080" stop-opacity="0.1"/>
</linearGradient>
<linearGradient id="paint5_linear" x1="3654.11" y1="15132.6" x2="3403.62" y2="9630.78" gradientUnits="userSpaceOnUse">
<stop stop-color="#808080" stop-opacity="0.25"/>
<stop offset="0.54" stop-color="#808080" stop-opacity="0.12"/>
<stop offset="1" stop-color="#808080" stop-opacity="0.1"/>
</linearGradient>
<linearGradient id="paint6_linear" x1="11310.1" y1="9978.63" x2="12603.4" y2="5995.86" gradientUnits="userSpaceOnUse">
<stop stop-color="#808080" stop-opacity="0.25"/>
<stop offset="0.54" stop-color="#808080" stop-opacity="0.12"/>
<stop offset="1" stop-color="#808080" stop-opacity="0.1"/>
</linearGradient>
<linearGradient id="paint7_linear" x1="14484.3" y1="28841.1" x2="14484.3" y2="14526.9" gradientUnits="userSpaceOnUse">
<stop stop-color="#808080" stop-opacity="0.25"/>
<stop offset="0.54" stop-color="#808080" stop-opacity="0.12"/>
<stop offset="1" stop-color="#808080" stop-opacity="0.1"/>
</linearGradient>
<clipPath id="clip0">
<rect width="91.1132" height="67.4034" fill="white" transform="translate(0.615479 0.727432)"/>
</clipPath>
</defs>
</svg>
